<?xml version="1.0" encoding="utf-8"?>
<!-- Generator: Adobe Illustrator 21.0.2, SVG Export Plug-In . SVG Version: 6.00 Build 0)  -->
<svg version="1.1" id="Layer_1" xmlns="http://www.w3.org/2000/svg" xmlns:xlink="http://www.w3.org/1999/xlink" x="0px" y="0px"
	 width="440.5px" height="585.2px" viewBox="0 0 440.5 585.2" style="enable-background:new 0 0 440.5 585.2;" xml:space="preserve"
	>
<style type="text/css">
	.Drop_x0020_Shadow{fill:none;}
	.Outer_x0020_Glow_x0020_5_x0020_pt{fill:none;}
	.Blue_x0020_Neon{fill:none;stroke:#8AACDA;stroke-width:7;stroke-linecap:round;stroke-linejoin:round;}
	.Chrome_x0020_Highlight{fill:url(#SVGID_1_);stroke:#FFFFFF;stroke-width:0.3629;stroke-miterlimit:1;}
	.Jive_GS{fill:#FFDD00;}
	.Alyssa_GS{fill:#A6D0E4;}
	.st0{fill:#0E4C87;}
	.st1{fill:none;stroke:#307EB2;stroke-width:8;stroke-miterlimit:10;}
	.st2{fill:#307EB2;}
	.st3{fill:none;stroke:#FFFFFF;stroke-width:6;stroke-miterlimit:10;}
	.st4{fill:#FFFFFF;stroke:#484748;stroke-miterlimit:10;}
	.st5{fill:#333333;}
	.st6{fill:#EDEBE6;stroke:#73645D;stroke-miterlimit:10;}
	.st7{fill:#231F20;}
</style>
<linearGradient id="SVGID_1_" gradientUnits="userSpaceOnUse" x1="-175.9917" y1="-129.8291" x2="-175.9917" y2="-130.8291">
	<stop  offset="0" style="stop-color:#656565"/>
	<stop  offset="0.618" style="stop-color:#1B1B1B"/>
	<stop  offset="0.6292" style="stop-color:#545454"/>
	<stop  offset="0.9831" style="stop-color:#3E3E3E"/>
</linearGradient>
<path class="st0" d="M358.3,243.1"/>
<path class="st0" d="M382.3,243.1"/>
<line class="st1" x1="370.3" y1="247.1" x2="370.3" y2="167.1"/>
<polyline class="st2" points="358.3,243.1 370.3,255.1 382.3,243.1 "/>
<path class="st3" d="M200.9,252.2"/>
<path class="st0" d="M185.2,252.9"/>
<path class="st0" d="M206.2,237.4"/>
<line class="st1" x1="198.3" y1="248.7" x2="146.6" y2="178.5"/>
<path class="st3" d="M92.2,252.2"/>
<path class="st0" d="M107.9,252.9"/>
<path class="st0" d="M86.9,237.4"/>
<line class="st1" x1="94.8" y1="248.7" x2="146.6" y2="178.5"/>
<path class="st3" d="M317.4,119.4"/>
<path class="st0" d="M301.7,120.1"/>
<path class="st0" d="M322.7,104.6"/>
<line class="st1" x1="314.8" y1="115.9" x2="263" y2="45.7"/>
<path class="st3" d="M208.7,119.4"/>
<path class="st0" d="M224.4,120.1"/>
<path class="st0" d="M203.4,104.6"/>
<line class="st1" x1="211.3" y1="115.9" x2="263" y2="45.7"/>
<path class="st4" d="M431.5,329.5h-116c-4.4,0-8-3.6-8-8v-44.1c0-4.4,3.6-8,8-8h116c4.4,0,8,3.6,8,8v44.1
	C439.5,325.9,435.9,329.5,431.5,329.5z"/>
<path class="st4" d="M124.5,329.5H8.5c-4.4,0-8-3.6-8-8v-44.1c0-4.4,3.6-8,8-8h116c4.4,0,8,3.6,8,8v44.1
	C132.5,325.9,128.9,329.5,124.5,329.5z"/>
<path class="st4" d="M275.5,329.5h-116c-4.4,0-8-3.6-8-8v-44.1c0-4.4,3.6-8,8-8h116c4.4,0,8,3.6,8,8v44.1
	C283.5,325.9,279.9,329.5,275.5,329.5z"/>
<path class="st4" d="M344.4,60.6H183.9c-4.4,0-8-3.6-8-8V8.5c0-4.4,3.6-8,8-8h160.5c4.4,0,8,3.6,8,8v44.1
	C352.4,57,348.8,60.6,344.4,60.6z"/>
<g>
	<g>
		<path class="st5" d="M197.1,27.8L197.1,27.8l-2.6,7.2h-0.8l-2.5-7.2h0l-1,7H188l1.9-11.6h1.6l2.8,7.5l2.7-7.5h1.6l1.7,11.6H198
			L197.1,27.8z"/>
		<path class="st5" d="M204.4,32.4l-0.9,2.4h-2.3l4.4-11.6h1.7l4.3,11.6h-2.4l-0.9-2.4H204.4z M206.3,26.5L206.3,26.5l-1.3,4.1h2.7
			L206.3,26.5z"/>
		<path class="st5" d="M220.7,26.5c-0.6-0.8-1.5-1.2-2.5-1.2c-2.1,0-3.3,2-3.3,3.9c0,1.9,1.3,3.8,3.3,3.8c0.9,0,1.9-0.5,2.5-1.2v2.6
			c-0.8,0.4-1.6,0.7-2.6,0.7c-3.2,0-5.5-2.7-5.5-5.9c0-3.2,2.3-6,5.6-6c0.9,0,1.8,0.2,2.5,0.7V26.5z"/>
		<path class="st5" d="M229.3,27.9v-4.5h2.2v11.3h-2.2v-5.1h-4.1v5.1h-2.2V23.5h2.2v4.5H229.3z"/>
		<path class="st5" d="M236.3,34.8h-2.2V23.5h2.2V34.8z"/>
		<path class="st5" d="M238.8,23.2h1.6l6,7.9h0v-7.6h2.2V35H247l-6-7.9h0v7.7h-2.2V23.2z"/>
		<path class="st5" d="M253.3,25.4v2.5h3.5v1.9h-3.5v3.1h3.6v1.9h-5.8V23.5h5.8v1.9H253.3z"/>
		<path class="st5" d="M266.7,32.9h3.1v1.9h-5.3V23.5h2.2V32.9z"/>
		<path class="st5" d="M273.7,25.4v2.5h3.5v1.9h-3.5v3.1h3.6v1.9h-5.8V23.5h5.8v1.9H273.7z"/>
		<path class="st5" d="M282,32.4l-0.9,2.4h-2.3l4.4-11.6h1.7l4.3,11.6h-2.4l-0.9-2.4H282z M283.9,26.5L283.9,26.5l-1.3,4.1h2.7
			L283.9,26.5z"/>
		<path class="st5" d="M298.4,34.8h-2.7l-2.7-4.6h0v4.6h-2.2V23.5h3c2.2,0,3.8,1,3.8,3.4c0,1.4-0.8,2.9-2.3,3.1L298.4,34.8z
			 M292.9,28.7h0.3c1.2,0,2.1-0.4,2.1-1.7c0-1.4-0.9-1.7-2.1-1.7h-0.3V28.7z"/>
		<path class="st5" d="M300,23.2h1.6l6,7.9h0v-7.6h2.2V35h-1.6l-6-7.9h0v7.7H300V23.2z"/>
		<path class="st5" d="M314.5,34.8h-2.2V23.5h2.2V34.8z"/>
		<path class="st5" d="M317,23.2h1.6l6,7.9h0v-7.6h2.2V35h-1.6l-6-7.9h0v7.7H317V23.2z"/>
		<path class="st5" d="M339.2,28.8v0.3c0,3.2-1.6,6-5.1,6c-3.3,0-5.4-2.8-5.4-5.9c0-3.2,2.1-6,5.5-6c1.9,0,3.6,1,4.5,2.7l-2,1
			c-0.5-1-1.4-1.8-2.6-1.8c-2.1,0-3.2,2.2-3.2,4s1.1,4,3.2,4c1.4,0,2.5-1.2,2.6-2.6h-2.4v-1.8H339.2z"/>
	</g>
</g>
<g>
	<g>
		<path class="st5" d="M336.6,295.4c-0.6-0.8-1.5-1.2-2.5-1.2c-2.1,0-3.3,2-3.3,3.9c0,1.9,1.3,3.8,3.3,3.8c0.9,0,1.9-0.5,2.5-1.2
			v2.6c-0.8,0.4-1.6,0.7-2.6,0.7c-3.2,0-5.5-2.7-5.5-5.9c0-3.2,2.3-6,5.6-6c0.9,0,1.8,0.2,2.5,0.7V295.4z"/>
		<path class="st5" d="M341.1,301.8h3.1v1.9h-5.3v-11.3h2.2V301.8z"/>
		<path class="st5" d="M345.8,292.4h2.2v6.3c0,1.4,0.1,3.4,2,3.4s2-2,2-3.4v-6.3h2.2v6.8c0,2.8-1.2,4.8-4.2,4.8
			c-3,0-4.2-2.1-4.2-4.8V292.4z"/>
		<path class="st5" d="M362,294.9c-0.4-0.6-1-0.9-1.7-0.9c-0.7,0-1.4,0.5-1.4,1.3c0,1.9,4.5,1.1,4.5,4.9c0,2.3-1.4,3.9-3.7,3.9
			c-1.6,0-2.7-0.9-3.5-2.2l1.4-1.4c0.3,0.9,1.1,1.6,2,1.6c0.9,0,1.5-0.8,1.5-1.6c0-1.2-1.1-1.5-2-1.8c-1.5-0.6-2.5-1.3-2.5-3.1
			c0-1.9,1.4-3.4,3.3-3.4c1,0,2.4,0.5,3.1,1.3L362,294.9z"/>
		<path class="st5" d="M369.1,303.7h-2.2v-9.4h-2.3v-1.9h6.8v1.9h-2.3V303.7z"/>
		<path class="st5" d="M375.3,294.3v2.5h3.5v1.9h-3.5v3.1h3.6v1.9h-5.8v-11.3h5.8v1.9H375.3z"/>
		<path class="st5" d="M389,303.7h-2.7l-2.7-4.6h0v4.6h-2.2v-11.3h3c2.2,0,3.8,1,3.8,3.4c0,1.4-0.8,2.9-2.3,3.1L389,303.7z
			 M383.5,297.6h0.3c1.2,0,2.1-0.4,2.1-1.7c0-1.4-0.9-1.7-2.1-1.7h-0.3V297.6z"/>
		<path class="st5" d="M392.8,303.7h-2.2v-11.3h2.2V303.7z"/>
		<path class="st5" d="M395.3,292.1h1.6l6,7.9h0v-7.6h2.2v11.5h-1.6l-6-7.9h0v7.7h-2.2V292.1z"/>
		<path class="st5" d="M417.6,297.7v0.3c0,3.2-1.6,6-5.1,6c-3.3,0-5.4-2.8-5.4-5.9c0-3.2,2.1-6,5.5-6c1.9,0,3.6,1,4.5,2.7l-2,1
			c-0.5-1-1.4-1.8-2.6-1.8c-2.1,0-3.2,2.2-3.2,4s1.1,4,3.2,4c1.4,0,2.5-1.2,2.6-2.6h-2.4v-1.8H417.6z"/>
	</g>
</g>
<g>
	<g>
		<path class="st5" d="M15,295.4c-0.6-0.8-1.5-1.2-2.5-1.2c-2.1,0-3.3,2-3.3,3.9c0,1.9,1.3,3.8,3.3,3.8c0.9,0,1.9-0.5,2.5-1.2v2.6
			c-0.8,0.4-1.6,0.7-2.6,0.7c-3.2,0-5.5-2.7-5.5-5.9c0-3.2,2.3-6,5.6-6c0.9,0,1.8,0.2,2.5,0.7V295.4z"/>
		<path class="st5" d="M19.5,301.8h3.1v1.9h-5.3v-11.3h2.2V301.8z"/>
		<path class="st5" d="M26.6,301.3l-0.9,2.4h-2.3l4.4-11.6h1.7l4.3,11.6h-2.4l-0.9-2.4H26.6z M28.5,295.4L28.5,295.4l-1.3,4.1h2.7
			L28.5,295.4z"/>
		<path class="st5" d="M40.6,294.9c-0.4-0.6-1-0.9-1.7-0.9c-0.7,0-1.4,0.5-1.4,1.3c0,1.9,4.5,1.1,4.5,4.9c0,2.3-1.4,3.9-3.7,3.9
			c-1.6,0-2.7-0.9-3.5-2.2l1.4-1.4c0.3,0.9,1.1,1.6,2,1.6c0.9,0,1.5-0.8,1.5-1.6c0-1.2-1.1-1.5-2-1.8c-1.5-0.6-2.5-1.3-2.5-3.1
			c0-1.9,1.4-3.4,3.3-3.4c1,0,2.4,0.5,3.1,1.3L40.6,294.9z"/>
		<path class="st5" d="M49.4,294.9c-0.4-0.6-1-0.9-1.7-0.9c-0.7,0-1.4,0.5-1.4,1.3c0,1.9,4.5,1.1,4.5,4.9c0,2.3-1.4,3.9-3.7,3.9
			c-1.6,0-2.7-0.9-3.5-2.2l1.4-1.4c0.3,0.9,1.1,1.6,2,1.6c0.9,0,1.5-0.8,1.5-1.6c0-1.2-1.1-1.5-2-1.8c-1.5-0.6-2.5-1.3-2.5-3.1
			c0-1.9,1.4-3.4,3.3-3.4c1,0,2.4,0.5,3.1,1.3L49.4,294.9z"/>
		<path class="st5" d="M55.1,303.7h-2.2v-11.3h2.2V303.7z"/>
		<path class="st5" d="M59.8,294.3v2.5H63v1.9h-3.2v5h-2.2v-11.3h5.6v1.9H59.8z"/>
		<path class="st5" d="M67.6,303.7h-2.2v-11.3h2.2V303.7z"/>
		<path class="st5" d="M77.7,295.4c-0.6-0.8-1.5-1.2-2.5-1.2c-2.1,0-3.3,2-3.3,3.9c0,1.9,1.3,3.8,3.3,3.8c0.9,0,1.9-0.5,2.5-1.2v2.6
			c-0.8,0.4-1.6,0.7-2.6,0.7c-3.2,0-5.5-2.7-5.5-5.9c0-3.2,2.3-6,5.6-6c0.9,0,1.8,0.2,2.5,0.7V295.4z"/>
		<path class="st5" d="M82.4,301.3l-0.9,2.4h-2.3l4.4-11.6h1.7l4.3,11.6h-2.4l-0.9-2.4H82.4z M84.3,295.4L84.3,295.4l-1.3,4.1h2.7
			L84.3,295.4z"/>
		<path class="st5" d="M93.6,303.7h-2.2v-9.4h-2.3v-1.9h6.8v1.9h-2.3V303.7z"/>
		<path class="st5" d="M99.8,303.7h-2.2v-11.3h2.2V303.7z"/>
		<path class="st5" d="M107.3,304c-3.4,0-5.6-2.6-5.6-6c0-3.4,2.2-5.9,5.6-5.9s5.6,2.6,5.6,5.9C112.9,301.4,110.8,304,107.3,304z
			 M107.3,294.3c-2.1,0-3.3,1.8-3.3,3.7c0,1.7,0.9,3.9,3.3,3.9s3.3-2.1,3.3-3.9C110.7,296.1,109.4,294.3,107.3,294.3z"/>
		<path class="st5" d="M114.9,292.1h1.6l6,7.9h0v-7.6h2.2v11.5h-1.6l-6-7.9h0v7.7h-2.2V292.1z"/>
	</g>
</g>
<g>
	<g>
		<path class="st5" d="M178.9,303.7h-2.7l-2.7-4.6h0v4.6h-2.2v-11.3h3c2.2,0,3.8,1,3.8,3.4c0,1.4-0.8,2.9-2.3,3.1L178.9,303.7z
			 M173.4,297.6h0.3c1.2,0,2.1-0.4,2.1-1.7c0-1.4-0.9-1.7-2.1-1.7h-0.3V297.6z"/>
		<path class="st5" d="M182.7,294.3v2.5h3.5v1.9h-3.5v3.1h3.6v1.9h-5.8v-11.3h5.8v1.9H182.7z"/>
		<path class="st5" d="M198.7,297.7v0.3c0,3.2-1.6,6-5.1,6c-3.3,0-5.4-2.8-5.4-5.9c0-3.2,2.1-6,5.5-6c1.9,0,3.6,1,4.5,2.7l-2,1
			c-0.4-1-1.4-1.8-2.6-1.8c-2.1,0-3.2,2.2-3.2,4s1.1,4,3.2,4c1.4,0,2.5-1.2,2.6-2.6h-2.4v-1.8H198.7z"/>
		<path class="st5" d="M208.3,303.7h-2.7l-2.7-4.6h0v4.6h-2.2v-11.3h3c2.2,0,3.8,1,3.8,3.4c0,1.4-0.8,2.9-2.3,3.1L208.3,303.7z
			 M202.9,297.6h0.3c1.2,0,2.1-0.4,2.1-1.7c0-1.4-0.9-1.7-2.1-1.7h-0.3V297.6z"/>
		<path class="st5" d="M212.2,294.3v2.5h3.5v1.9h-3.5v3.1h3.6v1.9H210v-11.3h5.8v1.9H212.2z"/>
		<path class="st5" d="M223.5,294.9c-0.4-0.6-1-0.9-1.7-0.9c-0.7,0-1.4,0.5-1.4,1.3c0,1.9,4.5,1.1,4.5,4.9c0,2.3-1.4,3.9-3.7,3.9
			c-1.6,0-2.7-0.9-3.5-2.2l1.4-1.4c0.3,0.9,1.1,1.6,2,1.6c0.9,0,1.5-0.8,1.5-1.6c0-1.2-1.1-1.5-2-1.8c-1.5-0.6-2.5-1.3-2.5-3.1
			c0-1.9,1.4-3.4,3.3-3.4c1,0,2.4,0.5,3.1,1.3L223.5,294.9z"/>
		<path class="st5" d="M232.3,294.9c-0.4-0.6-1-0.9-1.7-0.9c-0.7,0-1.4,0.5-1.4,1.3c0,1.9,4.5,1.1,4.5,4.9c0,2.3-1.4,3.9-3.7,3.9
			c-1.6,0-2.7-0.9-3.5-2.2l1.4-1.4c0.3,0.9,1.1,1.6,2,1.6c0.9,0,1.5-0.8,1.5-1.6c0-1.2-1.1-1.5-2-1.8c-1.5-0.6-2.5-1.3-2.5-3.1
			c0-1.9,1.4-3.4,3.3-3.4c1,0,2.4,0.5,3.1,1.3L232.3,294.9z"/>
		<path class="st5" d="M238,303.7h-2.2v-11.3h2.2V303.7z"/>
		<path class="st5" d="M245.5,304c-3.4,0-5.6-2.6-5.6-6c0-3.4,2.2-5.9,5.6-5.9s5.6,2.6,5.6,5.9C251.1,301.4,249,304,245.5,304z
			 M245.5,294.3c-2.1,0-3.3,1.8-3.3,3.7c0,1.7,0.9,3.9,3.3,3.9s3.3-2.1,3.3-3.9C248.8,296.1,247.6,294.3,245.5,294.3z"/>
		<path class="st5" d="M253.1,292.1h1.6l6,7.9h0v-7.6h2.2v11.5h-1.6l-6-7.9h0v7.7h-2.2V292.1z"/>
	</g>
</g>
<path class="st6" d="M432,382.1H316c-4.4,0-8-3.6-8-8v-26.3c0-4.4,3.6-8,8-8h116c4.4,0,8,3.6,8,8v26.3
	C440,378.5,436.4,382.1,432,382.1z"/>
<path class="st6" d="M432,428.3H316c-4.4,0-8-3.6-8-8V394c0-4.4,3.6-8,8-8h116c4.4,0,8,3.6,8,8v26.3
	C440,424.7,436.4,428.3,432,428.3z"/>
<path class="st6" d="M432,474.4H316c-4.4,0-8-3.6-8-8v-26.3c0-4.4,3.6-8,8-8h116c4.4,0,8,3.6,8,8v26.3
	C440,470.8,436.4,474.4,432,474.4z"/>
<path class="st6" d="M432,520.6H316c-4.4,0-8-3.6-8-8v-26.3c0-4.4,3.6-8,8-8h116c4.4,0,8,3.6,8,8v26.3
	C440,517,436.4,520.6,432,520.6z"/>
<path class="st6" d="M432,567H316c-4.4,0-8-3.6-8-8v-26.3c0-4.4,3.6-8,8-8h116c4.4,0,8,3.6,8,8V559C440,563.4,436.4,567,432,567z"/>
<path class="st6" d="M275.5,382.1h-116c-4.4,0-8-3.6-8-8v-26.3c0-4.4,3.6-8,8-8h116c4.4,0,8,3.6,8,8v26.3
	C283.5,378.5,279.9,382.1,275.5,382.1z"/>
<path class="st6" d="M275.5,428.3h-116c-4.4,0-8-3.6-8-8v-26.3c0-4.4,3.6-8,8-8h116c4.4,0,8,3.6,8,8v26.3
	C283.5,424.8,279.9,428.3,275.5,428.3z"/>
<path class="st6" d="M275.5,474.5h-116c-4.4,0-8-3.6-8-8v-26.3c0-4.4,3.6-8,8-8h116c4.4,0,8,3.6,8,8v26.3
	C283.5,471,279.9,474.5,275.5,474.5z"/>
<path class="st6" d="M275.5,520.7h-116c-4.4,0-8-3.6-8-8v-26.3c0-4.4,3.6-8,8-8h116c4.4,0,8,3.6,8,8v26.3
	C283.5,517.2,279.9,520.7,275.5,520.7z"/>
<path class="st6" d="M275.5,567h-116c-4.4,0-8-3.6-8-8v-26.3c0-4.4,3.6-8,8-8h116c4.4,0,8,3.6,8,8V559
	C283.5,563.4,279.9,567,275.5,567z"/>
<path class="st6" d="M124.5,382.1H8.5c-4.4,0-8-3.6-8-8v-26.3c0-4.4,3.6-8,8-8h116c4.4,0,8,3.6,8,8v26.3
	C132.5,378.5,128.9,382.1,124.5,382.1z"/>
<path class="st6" d="M124.5,428.1H8.5c-4.4,0-8-3.6-8-8v-26.3c0-4.4,3.6-8,8-8h116c4.4,0,8,3.6,8,8v26.3
	C132.5,424.5,128.9,428.1,124.5,428.1z"/>
<path class="st6" d="M124.5,474H8.5c-4.4,0-8-3.6-8-8v-26.3c0-4.4,3.6-8,8-8h116c4.4,0,8,3.6,8,8V466
	C132.5,470.4,128.9,474,124.5,474z"/>
<path class="st6" d="M124.5,520H8.5c-4.4,0-8-3.6-8-8v-26.3c0-4.4,3.6-8,8-8h116c4.4,0,8,3.6,8,8V512
	C132.5,516.4,128.9,520,124.5,520z"/>
<g>
	<g>
		<path class="st7" d="M30.9,351.4c-0.3-0.5-0.7-0.8-1.3-0.8c-0.7,0-1.4,0.5-1.4,1.2c0,0.6,0.6,1,1.2,1.2l0.6,0.2
			c1.2,0.5,2.1,1.1,2.1,2.5c0,1.5-1.2,2.6-2.7,2.6c-1.3,0-2.4-1-2.6-2.3l1-0.2c0,0.9,0.7,1.6,1.6,1.6s1.5-0.7,1.5-1.6
			c0-0.9-0.7-1.3-1.4-1.6l-0.6-0.2c-0.9-0.4-1.8-0.9-1.8-2.1c0-1.3,1.2-2.1,2.4-2.1c0.9,0,1.7,0.5,2.1,1.3L30.9,351.4z"/>
		<path class="st7" d="M34.7,352.9v2.8c0,0.8,0.2,1.6,1.2,1.6s1.2-0.7,1.2-1.6v-2.8h1v3c0,1.4-0.7,2.4-2.2,2.4s-2.2-1-2.2-2.4v-3
			H34.7z"/>
		<path class="st7" d="M40.9,353.8L40.9,353.8c0.4-0.6,1-1,1.8-1c1.5,0,2.4,1.3,2.4,2.7c0,1.5-0.9,2.8-2.5,2.8c-0.7,0-1.4-0.4-1.7-1
			h0v3.8h-1v-8.1h1V353.8z M44.2,355.5c0-1-0.6-1.8-1.7-1.8c-1,0-1.6,0.9-1.6,1.8c0,1,0.6,1.9,1.6,1.9
			C43.6,357.4,44.2,356.5,44.2,355.5z"/>
		<path class="st7" d="M47.7,353.8L47.7,353.8c0.4-0.6,1-1,1.8-1c1.5,0,2.4,1.3,2.4,2.7c0,1.5-0.9,2.8-2.5,2.8c-0.7,0-1.4-0.4-1.7-1
			h0v3.8h-1v-8.1h1V353.8z M50.9,355.5c0-1-0.6-1.8-1.7-1.8c-1,0-1.6,0.9-1.6,1.8c0,1,0.6,1.9,1.6,1.9
			C50.3,357.4,50.9,356.5,50.9,355.5z"/>
		<path class="st7" d="M58.6,355.5c0,1.6-1.2,2.7-2.8,2.7c-1.5,0-2.8-1.2-2.8-2.7c0-1.6,1.2-2.7,2.8-2.7
			C57.4,352.8,58.6,354,58.6,355.5z M54.1,355.5c0,1,0.8,1.8,1.8,1.8c1,0,1.8-0.8,1.8-1.8c0-1-0.8-1.8-1.8-1.8
			C54.9,353.7,54.1,354.5,54.1,355.5z"/>
		<path class="st7" d="M61.2,353.8L61.2,353.8c0.3-0.6,0.8-1,1.4-1c0.3,0,0.6,0.1,0.8,0.3l-0.5,0.9c-0.2-0.2-0.4-0.2-0.6-0.2
			c-1.1,0-1.2,1-1.2,1.8v2.5h-1v-5.1h1V353.8z"/>
		<path class="st7" d="M66,358.1h-1v-4.2h-0.5v-0.9H65v-2h1v2h1v0.9h-1V358.1z"/>
		<path class="st7" d="M74.9,355.9l2.5-6.1h1.1l-3.6,8.7l-3.6-8.7h1.1L74.9,355.9z"/>
		<path class="st7" d="M79.4,355.7c0,0.9,0.6,1.7,1.6,1.7c0.8,0,1.2-0.4,1.5-1l0.8,0.5c-0.5,0.9-1.4,1.4-2.4,1.4
			c-1.6,0-2.5-1.2-2.5-2.7c0-1.6,0.8-2.8,2.5-2.8c1.6,0,2.4,1.2,2.4,2.7v0.2H79.4z M82.4,354.9c-0.1-0.8-0.6-1.3-1.4-1.3
			c-0.8,0-1.3,0.5-1.5,1.3H82.4z"/>
		<path class="st7" d="M88.7,354.4c-0.4-0.5-0.9-0.7-1.5-0.7c-1,0-1.7,0.9-1.7,1.8c0,1.1,0.7,1.8,1.8,1.8c0.6,0,1-0.3,1.4-0.7v1.3
			c-0.5,0.2-0.9,0.3-1.4,0.3c-1.5,0-2.8-1.2-2.8-2.7c0-1.6,1.2-2.8,2.8-2.8c0.5,0,1,0.1,1.4,0.3V354.4z"/>
		<path class="st7" d="M91.5,358.1h-1v-4.2H90v-0.9h0.5v-2h1v2h1v0.9h-1V358.1z"/>
		<path class="st7" d="M98.7,355.5c0,1.6-1.2,2.7-2.8,2.7c-1.5,0-2.8-1.2-2.8-2.7c0-1.6,1.2-2.7,2.8-2.7
			C97.5,352.8,98.7,354,98.7,355.5z M94.2,355.5c0,1,0.8,1.8,1.8,1.8c1,0,1.8-0.8,1.8-1.8c0-1-0.8-1.8-1.8-1.8
			C95,353.7,94.2,354.5,94.2,355.5z"/>
		<path class="st7" d="M101.3,353.8L101.3,353.8c0.3-0.6,0.8-1,1.4-1c0.3,0,0.6,0.1,0.8,0.3l-0.5,0.9c-0.2-0.2-0.4-0.2-0.6-0.2
			c-1.1,0-1.2,1-1.2,1.8v2.5h-1v-5.1h1V353.8z"/>
		<path class="st7" d="M44.7,364.6L44.7,364.6l-1,5.5h-1.1l1.7-8.6l2.8,6.5l2.8-6.5l1.7,8.6h-1.1l-1-5.5h0l-2.5,5.7L44.7,364.6z"/>
		<path class="st7" d="M58,370.1h-1v-0.8h0c-0.4,0.6-1,1-1.7,1c-1.6,0-2.5-1.3-2.5-2.8c0-1.4,0.9-2.7,2.4-2.7c0.8,0,1.4,0.4,1.8,1h0
			v-0.9h1V370.1z M57.1,367.5c0-1-0.6-1.8-1.7-1.8c-1,0-1.6,0.9-1.6,1.8c0,1,0.6,1.9,1.6,1.9C56.5,369.4,57.1,368.5,57.1,367.5z"/>
		<path class="st7" d="M63.7,366.4c-0.4-0.5-0.9-0.7-1.5-0.7c-1,0-1.7,0.9-1.7,1.8c0,1.1,0.7,1.8,1.8,1.8c0.6,0,1-0.3,1.4-0.7v1.3
			c-0.5,0.2-0.9,0.3-1.4,0.3c-1.5,0-2.8-1.2-2.8-2.7c0-1.6,1.2-2.8,2.8-2.8c0.5,0,1,0.1,1.4,0.3V366.4z"/>
		<path class="st7" d="M66.4,360.5v5.1h0c0.3-0.6,0.9-0.8,1.6-0.8c1.5,0,1.8,1,1.8,2.2v3.1h-1v-2.9c0-0.9-0.1-1.5-1.1-1.5
			c-1.3,0-1.3,1.1-1.3,2.1v2.4h-1v-9.5H66.4z"/>
		<path class="st7" d="M73.3,362.6c0,0.4-0.3,0.7-0.7,0.7c-0.4,0-0.7-0.3-0.7-0.7c0-0.4,0.3-0.7,0.7-0.7
			C73,361.9,73.3,362.2,73.3,362.6z M73.1,370.1h-1v-5.1h1V370.1z"/>
		<path class="st7" d="M76.3,365.6L76.3,365.6c0.3-0.6,0.9-0.8,1.6-0.8c1.5,0,1.8,1,1.8,2.2v3.1h-1v-2.9c0-0.9-0.1-1.5-1.1-1.5
			c-1.3,0-1.3,1.1-1.3,2.1v2.4h-1v-5.1h1V365.6z"/>
		<path class="st7" d="M82.3,367.7c0,0.9,0.6,1.7,1.6,1.7c0.8,0,1.2-0.4,1.5-1l0.8,0.5c-0.5,0.9-1.4,1.4-2.4,1.4
			c-1.6,0-2.5-1.2-2.5-2.7c0-1.6,0.8-2.8,2.5-2.8c1.6,0,2.4,1.2,2.4,2.7v0.2H82.3z M85.3,366.9c-0.1-0.8-0.6-1.3-1.4-1.3
			c-0.8,0-1.3,0.5-1.5,1.3H85.3z"/>
		<path class="st7" d="M89.8,366.1c-0.1-0.3-0.4-0.5-0.7-0.5c-0.3,0-0.5,0.2-0.5,0.5c0,0.5,0.6,0.6,1.2,0.9s1.2,0.6,1.2,1.5
			c0,1-0.8,1.7-1.8,1.7c-0.7,0-1.5-0.4-1.8-1.2l0.8-0.4c0.2,0.4,0.5,0.7,0.9,0.7c0.4,0,0.8-0.3,0.8-0.7c0-0.3-0.1-0.4-0.4-0.6
			l-1-0.5c-0.6-0.3-1-0.6-1-1.3c0-0.8,0.7-1.5,1.5-1.5c0.6,0,1.1,0.3,1.4,0.9L89.8,366.1z"/>
	</g>
</g>
<g>
	<g>
		<path class="st7" d="M35.3,395.9H37c2.5,0,4.7,1.3,4.7,4.1c0,2.8-2.1,4.2-4.7,4.2h-1.7V395.9z M36.3,403.2h0.4
			c2.1,0,3.9-0.8,3.9-3.2c0-2.4-1.8-3.2-3.9-3.2h-0.4V403.2z"/>
		<path class="st7" d="M44.6,396.7c0,0.4-0.3,0.7-0.7,0.7c-0.4,0-0.7-0.3-0.7-0.7c0-0.4,0.3-0.7,0.7-0.7
			C44.3,396,44.6,396.3,44.6,396.7z M44.5,404.2h-1V399h1V404.2z"/>
		<path class="st7" d="M48.8,400.2c-0.1-0.3-0.4-0.5-0.7-0.5c-0.3,0-0.5,0.2-0.5,0.5c0,0.5,0.6,0.6,1.2,0.9c0.6,0.3,1.2,0.6,1.2,1.5
			c0,1-0.8,1.7-1.8,1.7c-0.7,0-1.5-0.4-1.8-1.2l0.8-0.4c0.2,0.4,0.5,0.7,0.9,0.7c0.4,0,0.8-0.3,0.8-0.7c0-0.3-0.1-0.4-0.4-0.6
			l-1-0.5c-0.6-0.3-1-0.6-1-1.3c0-0.8,0.7-1.5,1.5-1.5c0.6,0,1.1,0.3,1.4,0.9L48.8,400.2z"/>
		<path class="st7" d="M55.4,400.5c-0.4-0.5-0.9-0.7-1.5-0.7c-1,0-1.7,0.9-1.7,1.8c0,1.1,0.7,1.8,1.8,1.8c0.6,0,1-0.3,1.4-0.7v1.3
			c-0.5,0.2-0.9,0.3-1.4,0.3c-1.5,0-2.8-1.2-2.8-2.7c0-1.6,1.2-2.8,2.8-2.8c0.5,0,1,0.1,1.4,0.3V400.5z"/>
		<path class="st7" d="M58.1,399.9L58.1,399.9c0.3-0.6,0.8-1,1.4-1c0.3,0,0.6,0.1,0.8,0.3L60,400c-0.2-0.2-0.4-0.2-0.6-0.2
			c-1.1,0-1.2,1-1.2,1.8v2.5h-1V399h1V399.9z"/>
		<path class="st7" d="M63,396.7c0,0.4-0.3,0.7-0.7,0.7c-0.4,0-0.7-0.3-0.7-0.7c0-0.4,0.3-0.7,0.7-0.7C62.7,396,63,396.3,63,396.7z
			 M62.8,404.2h-1V399h1V404.2z"/>
		<path class="st7" d="M66,399.7L66,399.7c0.3-0.5,0.8-0.8,1.4-0.8c0.7,0,1.2,0.3,1.5,0.9c0.3-0.6,0.9-0.9,1.6-0.9
			c1.4,0,1.7,1.1,1.7,2.2v3.1h-1v-2.9c0-0.7-0.1-1.5-1-1.5c-1.1,0-1.1,1.1-1.1,1.9v2.5h-1v-2.7c0-0.7,0-1.7-0.9-1.7
			c-1.1,0-1.1,1.1-1.1,1.9v2.5h-1V399h1V399.7z"/>
		<path class="st7" d="M75.6,396.7c0,0.4-0.3,0.7-0.7,0.7c-0.4,0-0.7-0.3-0.7-0.7c0-0.4,0.3-0.7,0.7-0.7
			C75.3,396,75.6,396.3,75.6,396.7z M75.4,404.2h-1V399h1V404.2z"/>
		<path class="st7" d="M78.6,399.7L78.6,399.7c0.3-0.5,0.9-0.8,1.6-0.8c1.5,0,1.8,1,1.8,2.2v3.1h-1v-2.9c0-0.9-0.1-1.5-1.1-1.5
			c-1.3,0-1.3,1.1-1.3,2.1v2.4h-1V399h1V399.7z"/>
		<path class="st7" d="M88.9,404.2h-1v-0.8h0c-0.4,0.6-1,1-1.7,1c-1.6,0-2.5-1.3-2.5-2.8c0-1.4,0.9-2.7,2.4-2.7c0.8,0,1.4,0.4,1.8,1
			h0V399h1V404.2z M87.9,401.6c0-1-0.6-1.8-1.7-1.8c-1,0-1.6,0.9-1.6,1.8c0,1,0.6,1.9,1.6,1.9C87.3,403.5,87.9,402.6,87.9,401.6z"/>
		<path class="st7" d="M91.8,399.7L91.8,399.7c0.3-0.5,0.9-0.8,1.6-0.8c1.5,0,1.8,1,1.8,2.2v3.1h-1v-2.9c0-0.9-0.1-1.5-1.1-1.5
			c-1.3,0-1.3,1.1-1.3,2.1v2.4h-1V399h1V399.7z"/>
		<path class="st7" d="M98.4,404.2h-1V400h-0.5V399h0.5v-2h1v2h1v0.9h-1V404.2z"/>
		<path class="st7" d="M47.2,414.1l-0.9,2.1h-1.1l4-8.6l4,8.6H52l-0.9-2.1H47.2z M49.1,409.8l-1.5,3.4h2.9L49.1,409.8z"/>
		<path class="st7" d="M55.3,411.7L55.3,411.7c0.3-0.5,0.9-0.8,1.6-0.8c1.5,0,1.8,1,1.8,2.2v3.1h-1v-2.9c0-0.9-0.1-1.5-1.1-1.5
			c-1.3,0-1.3,1.1-1.3,2.1v2.4h-1V411h1V411.7z"/>
		<path class="st7" d="M65.6,416.2h-1v-0.8h0c-0.4,0.6-1,1-1.7,1c-1.6,0-2.5-1.3-2.5-2.8c0-1.4,0.9-2.7,2.4-2.7c0.8,0,1.4,0.4,1.8,1
			h0V411h1V416.2z M64.7,413.6c0-1-0.6-1.8-1.7-1.8c-1,0-1.6,0.9-1.6,1.8c0,1,0.6,1.9,1.6,1.9C64.1,415.5,64.7,414.6,64.7,413.6z"/>
		<path class="st7" d="M68.6,416.2h-1v-9.5h1V416.2z"/>
		<path class="st7" d="M69.8,411H71l1.7,3.3l1.6-3.3h1.1l-4.2,8.1h-1.1l2-3.8L69.8,411z"/>
		<path class="st7" d="M78.7,412.2c-0.1-0.3-0.4-0.5-0.7-0.5c-0.3,0-0.5,0.2-0.5,0.5c0,0.5,0.6,0.6,1.2,0.9c0.6,0.3,1.2,0.6,1.2,1.5
			c0,1-0.8,1.7-1.8,1.7c-0.7,0-1.5-0.4-1.8-1.2l0.8-0.4c0.2,0.4,0.5,0.7,0.9,0.7c0.4,0,0.8-0.3,0.8-0.7c0-0.3-0.1-0.4-0.4-0.6
			l-1-0.5c-0.6-0.3-1-0.6-1-1.3c0-0.8,0.7-1.5,1.5-1.5c0.6,0,1.1,0.3,1.4,0.9L78.7,412.2z"/>
		<path class="st7" d="M82.9,408.7c0,0.4-0.3,0.7-0.7,0.7c-0.4,0-0.7-0.3-0.7-0.7c0-0.4,0.3-0.7,0.7-0.7
			C82.6,408,82.9,408.3,82.9,408.7z M82.7,416.2h-1V411h1V416.2z"/>
		<path class="st7" d="M87,412.2c-0.1-0.3-0.4-0.5-0.7-0.5c-0.3,0-0.5,0.2-0.5,0.5c0,0.5,0.6,0.6,1.2,0.9c0.6,0.3,1.2,0.6,1.2,1.5
			c0,1-0.8,1.7-1.8,1.7c-0.7,0-1.5-0.4-1.8-1.2l0.8-0.4c0.2,0.4,0.5,0.7,0.9,0.7c0.4,0,0.8-0.3,0.8-0.7c0-0.3-0.1-0.4-0.4-0.6
			l-1-0.5c-0.6-0.3-1-0.6-1-1.3c0-0.8,0.7-1.5,1.5-1.5c0.6,0,1.1,0.3,1.4,0.9L87,412.2z"/>
	</g>
</g>
<g>
	<g>
		<path class="st7" d="M35.3,447l6.2,6.5v-6.1h1v8.6l-6.2-6.5v6.2h-1V447z"/>
		<path class="st7" d="M49.4,455.7h-1v-0.8h0c-0.4,0.6-1,1-1.7,1c-1.6,0-2.5-1.3-2.5-2.8c0-1.4,0.9-2.7,2.4-2.7c0.8,0,1.4,0.4,1.8,1
			h0v-0.9h1V455.7z M48.5,453.1c0-1-0.6-1.8-1.7-1.8c-1,0-1.6,0.9-1.6,1.8c0,1,0.6,1.9,1.6,1.9C47.9,455,48.5,454.1,48.5,453.1z"/>
		<path class="st7" d="M52.8,448.2c0,0.4-0.3,0.7-0.7,0.7c-0.4,0-0.7-0.3-0.7-0.7c0-0.4,0.3-0.7,0.7-0.7
			C52.5,447.5,52.8,447.8,52.8,448.2z M52.6,455.7h-1v-5.1h1V455.7z"/>
		<path class="st7" d="M56.6,453.8l1.5-3.2h1.1l-2.6,5.3l-2.6-5.3h1.1L56.6,453.8z"/>
		<path class="st7" d="M61,453.3c0,0.9,0.6,1.7,1.6,1.7c0.8,0,1.2-0.4,1.5-1l0.8,0.5c-0.5,0.9-1.4,1.4-2.4,1.4
			c-1.6,0-2.5-1.2-2.5-2.7c0-1.6,0.8-2.8,2.5-2.8c1.6,0,2.4,1.2,2.4,2.7v0.2H61z M63.9,452.5c-0.1-0.8-0.6-1.3-1.4-1.3
			c-0.8,0-1.3,0.5-1.5,1.3H63.9z"/>
		<path class="st7" d="M70.3,447.4h1c1.6,0,3,0.4,3,2.3c0,0.6-0.3,1.3-0.9,1.6v0c1,0.2,1.7,1.1,1.7,2.1c0,1.7-1.4,2.3-2.9,2.3h-1.9
			V447.4z M71.3,451.1h0.3c1,0,1.8-0.2,1.8-1.4c0-1.2-0.8-1.4-1.8-1.4h-0.3V451.1z M71.3,454.8h0.8c1,0,2-0.3,2-1.5
			c0-1.2-1.2-1.4-2.1-1.4h-0.6V454.8z"/>
		<path class="st7" d="M81.6,455.7h-1v-0.8h0c-0.4,0.6-1,1-1.7,1c-1.6,0-2.5-1.3-2.5-2.8c0-1.4,0.9-2.7,2.4-2.7c0.8,0,1.4,0.4,1.8,1
			h0v-0.9h1V455.7z M80.7,453.1c0-1-0.6-1.8-1.7-1.8c-1,0-1.6,0.9-1.6,1.8c0,1,0.6,1.9,1.6,1.9C80.1,455,80.7,454.1,80.7,453.1z"/>
		<path class="st7" d="M82.8,450.5h1.2l1.7,3.3l1.6-3.3h1.1l-4.2,8.1h-1.1l2-3.8L82.8,450.5z"/>
		<path class="st7" d="M90.2,453.3c0,0.9,0.6,1.7,1.6,1.7c0.8,0,1.2-0.4,1.5-1l0.8,0.5c-0.5,0.9-1.4,1.4-2.4,1.4
			c-1.6,0-2.5-1.2-2.5-2.7c0-1.6,0.8-2.8,2.5-2.8c1.6,0,2.4,1.2,2.4,2.7v0.2H90.2z M93.1,452.5c-0.1-0.8-0.6-1.3-1.4-1.3
			c-0.8,0-1.3,0.5-1.5,1.3H93.1z"/>
		<path class="st7" d="M97.7,451.7c-0.1-0.3-0.4-0.5-0.7-0.5c-0.3,0-0.5,0.2-0.5,0.5c0,0.5,0.6,0.6,1.2,0.9s1.2,0.6,1.2,1.5
			c0,1-0.8,1.7-1.8,1.7c-0.7,0-1.5-0.4-1.8-1.2l0.8-0.4c0.2,0.4,0.5,0.7,0.9,0.7c0.4,0,0.8-0.3,0.8-0.7c0-0.3-0.1-0.4-0.4-0.6
			l-1-0.5c-0.6-0.3-1-0.6-1-1.3c0-0.8,0.7-1.5,1.5-1.5c0.6,0,1.1,0.3,1.4,0.9L97.7,451.7z"/>
	</g>
</g>
<g>
	<g>
		<path class="st7" d="M20.6,493.8l6.2,6.5v-6.1h1v8.6l-6.2-6.5v6.2h-1V493.8z"/>
		<path class="st7" d="M30.5,500c0,0.9,0.6,1.7,1.6,1.7c0.8,0,1.2-0.4,1.5-1l0.8,0.5c-0.5,0.9-1.4,1.4-2.4,1.4
			c-1.6,0-2.5-1.2-2.5-2.7c0-1.6,0.8-2.8,2.5-2.8c1.6,0,2.4,1.2,2.4,2.7v0.2H30.5z M33.5,499.3c-0.1-0.8-0.6-1.3-1.4-1.3
			c-0.8,0-1.3,0.6-1.5,1.3H33.5z"/>
		<path class="st7" d="M40.8,502.4h-1v-0.8h0c-0.4,0.6-1,1-1.7,1c-1.6,0-2.5-1.3-2.5-2.8c0-1.4,0.9-2.7,2.4-2.7c0.8,0,1.4,0.4,1.8,1
			h0v-0.9h1V502.4z M39.9,499.9c0-1-0.6-1.8-1.7-1.8c-1,0-1.6,0.9-1.6,1.8c0,1,0.6,1.9,1.6,1.9C39.3,501.7,39.9,500.9,39.9,499.9z"
			/>
		<path class="st7" d="M43.8,498.1L43.8,498.1c0.3-0.6,0.8-1,1.4-1c0.3,0,0.6,0.1,0.8,0.3l-0.5,0.9c-0.2-0.2-0.4-0.2-0.6-0.2
			c-1.1,0-1.2,1-1.2,1.8v2.5h-1v-5.1h1V498.1z"/>
		<path class="st7" d="M47.8,500c0,0.9,0.6,1.7,1.6,1.7c0.8,0,1.2-0.4,1.5-1l0.8,0.5c-0.5,0.9-1.4,1.4-2.4,1.4
			c-1.6,0-2.5-1.2-2.5-2.7c0-1.6,0.8-2.8,2.5-2.8c1.6,0,2.4,1.2,2.4,2.7v0.2H47.8z M50.8,499.3c-0.1-0.8-0.6-1.3-1.4-1.3
			c-0.8,0-1.3,0.6-1.5,1.3H50.8z"/>
		<path class="st7" d="M55.3,498.5c-0.1-0.3-0.4-0.5-0.7-0.5c-0.3,0-0.5,0.2-0.5,0.5c0,0.5,0.6,0.6,1.2,0.9c0.6,0.3,1.2,0.6,1.2,1.5
			c0,1-0.8,1.7-1.8,1.7c-0.7,0-1.5-0.4-1.8-1.2l0.8-0.4c0.2,0.4,0.5,0.7,0.9,0.7c0.4,0,0.8-0.3,0.8-0.7c0-0.3-0.1-0.4-0.4-0.6
			l-1-0.5c-0.6-0.3-1-0.6-1-1.3c0-0.8,0.7-1.5,1.5-1.5c0.6,0,1.1,0.3,1.4,0.9L55.3,498.5z"/>
		<path class="st7" d="M59.3,502.4h-1v-4.2h-0.5v-0.9h0.5v-2h1v2h1v0.9h-1V502.4z"/>
		<path class="st7" d="M65.3,493.8l6.2,6.5v-6.1h1v8.6l-6.2-6.5v6.2h-1V493.8z"/>
		<path class="st7" d="M75.2,500c0,0.9,0.6,1.7,1.6,1.7c0.8,0,1.2-0.4,1.5-1l0.8,0.5c-0.5,0.9-1.4,1.4-2.4,1.4
			c-1.6,0-2.5-1.2-2.5-2.7c0-1.6,0.8-2.8,2.5-2.8c1.6,0,2.4,1.2,2.4,2.7v0.2H75.2z M78.1,499.3c-0.1-0.8-0.6-1.3-1.4-1.3
			c-0.8,0-1.3,0.6-1.5,1.3H78.1z"/>
		<path class="st7" d="M82,494.9c0,0.4-0.3,0.7-0.7,0.7c-0.4,0-0.7-0.3-0.7-0.7c0-0.4,0.3-0.7,0.7-0.7C81.7,494.2,82,494.6,82,494.9
			z M81.8,502.4h-1v-5.1h1V502.4z"/>
		<path class="st7" d="M88.9,502.3c0,1.8-0.5,3-2.5,3c-1.4,0-2.5-0.9-2.5-2.3h1c0,0.9,0.6,1.5,1.5,1.5c1.2,0,1.5-0.8,1.5-1.9v-1h0
			c-0.4,0.6-1,1-1.7,1c-1.6,0-2.5-1.3-2.5-2.8c0-1.4,0.9-2.7,2.4-2.7c0.8,0,1.4,0.4,1.8,1h0v-0.9h1V502.3z M88,499.9
			c0-1-0.6-1.8-1.7-1.8c-1,0-1.6,0.9-1.6,1.8c0,1,0.6,1.9,1.6,1.9C87.4,501.7,88,500.9,88,499.9z"/>
		<path class="st7" d="M91.8,492.9v5.1h0c0.3-0.5,0.9-0.8,1.6-0.8c1.5,0,1.8,1,1.8,2.2v3.1h-1v-2.9c0-0.9-0.1-1.5-1.1-1.5
			c-1.3,0-1.3,1.1-1.3,2.1v2.4h-1v-9.5H91.8z"/>
		<path class="st7" d="M97.2,492.9h1v5.3h0c0.4-0.6,1-1,1.8-1c1.5,0,2.4,1.3,2.4,2.7c0,1.5-0.9,2.8-2.5,2.8c-0.7,0-1.4-0.4-1.7-1h0
			v0.8h-1V492.9z M101.4,499.9c0-1-0.6-1.8-1.7-1.8c-1,0-1.6,0.9-1.6,1.8c0,1,0.6,1.9,1.6,1.9C100.8,501.7,101.4,500.9,101.4,499.9z
			"/>
		<path class="st7" d="M109.1,499.9c0,1.6-1.2,2.7-2.8,2.7c-1.5,0-2.8-1.2-2.8-2.7c0-1.6,1.2-2.7,2.8-2.7
			C107.9,497.1,109.1,498.3,109.1,499.9z M104.6,499.9c0,1,0.8,1.8,1.8,1.8c1,0,1.8-0.8,1.8-1.8c0-1-0.8-1.8-1.8-1.8
			C105.3,498.1,104.6,498.9,104.6,499.9z"/>
		<path class="st7" d="M111.7,498.1L111.7,498.1c0.3-0.6,0.8-1,1.4-1c0.3,0,0.6,0.1,0.8,0.3l-0.5,0.9c-0.2-0.2-0.4-0.2-0.6-0.2
			c-1.1,0-1.2,1-1.2,1.8v2.5h-1v-5.1h1V498.1z"/>
	</g>
</g>
<g>
	<g>
		<path class="st7" d="M171.5,357.1h2.5v0.9h-3.6v-8.3h1V357.1z"/>
		<path class="st7" d="M176.6,350.6c0,0.4-0.3,0.7-0.7,0.7c-0.4,0-0.7-0.3-0.7-0.7c0-0.4,0.3-0.7,0.7-0.7
			C176.3,349.9,176.6,350.2,176.6,350.6z M176.4,358.1h-1v-5.1h1V358.1z"/>
		<path class="st7" d="M179.7,353.6L179.7,353.6c0.3-0.6,0.9-0.8,1.6-0.8c1.5,0,1.8,1,1.8,2.2v3.1h-1v-2.9c0-0.9-0.1-1.5-1.1-1.5
			c-1.3,0-1.3,1.1-1.3,2.1v2.4h-1v-5.1h1V353.6z"/>
		<path class="st7" d="M185.7,355.7c0,0.9,0.6,1.7,1.6,1.7c0.8,0,1.2-0.4,1.5-1l0.8,0.5c-0.5,0.9-1.4,1.4-2.4,1.4
			c-1.6,0-2.5-1.2-2.5-2.7c0-1.6,0.8-2.8,2.5-2.8c1.6,0,2.4,1.2,2.4,2.7v0.2H185.7z M188.6,354.9c-0.1-0.8-0.6-1.3-1.4-1.3
			c-0.8,0-1.3,0.5-1.5,1.3H188.6z"/>
		<path class="st7" d="M195.9,358.1h-1v-0.8h0c-0.4,0.6-1,1-1.7,1c-1.6,0-2.5-1.3-2.5-2.8c0-1.4,0.9-2.7,2.4-2.7
			c0.8,0,1.4,0.4,1.8,1h0v-0.9h1V358.1z M195,355.5c0-1-0.6-1.8-1.7-1.8c-1,0-1.6,0.9-1.6,1.8c0,1,0.6,1.9,1.6,1.9
			C194.4,357.4,195,356.5,195,355.5z"/>
		<path class="st7" d="M198.9,353.8L198.9,353.8c0.3-0.6,0.8-1,1.4-1c0.3,0,0.6,0.1,0.8,0.3l-0.5,0.9c-0.2-0.2-0.4-0.2-0.6-0.2
			c-1.1,0-1.2,1-1.2,1.8v2.5h-1v-5.1h1V353.8z"/>
		<path class="st7" d="M211.5,358.1h-1.3l-2.4-3.5h-0.4v3.5h-1v-8.3h1.3c0.7,0,1.5,0,2.2,0.4c0.7,0.4,1.1,1.2,1.1,2
			c0,1.2-0.8,2.2-2,2.3L211.5,358.1z M207.4,353.7h0.3c1.1,0,2.2-0.2,2.2-1.5c0-1.3-1.2-1.5-2.3-1.5h-0.3V353.7z"/>
		<path class="st7" d="M213.5,355.7c0,0.9,0.6,1.7,1.6,1.7c0.8,0,1.2-0.4,1.5-1l0.8,0.5c-0.5,0.9-1.4,1.4-2.4,1.4
			c-1.6,0-2.5-1.2-2.5-2.7c0-1.6,0.8-2.8,2.5-2.8c1.6,0,2.4,1.2,2.4,2.7v0.2H213.5z M216.4,354.9c-0.1-0.8-0.6-1.3-1.4-1.3
			c-0.8,0-1.3,0.5-1.5,1.3H216.4z"/>
		<path class="st7" d="M223.7,358c0,1.8-0.5,3-2.5,3c-1.4,0-2.5-0.9-2.5-2.3h1c0,0.9,0.6,1.5,1.5,1.5c1.2,0,1.5-0.8,1.5-1.9v-1h0
			c-0.4,0.6-1,1-1.7,1c-1.6,0-2.5-1.3-2.5-2.8c0-1.4,0.9-2.7,2.4-2.7c0.8,0,1.4,0.4,1.8,1h0v-0.9h1V358z M222.8,355.5
			c0-1-0.6-1.8-1.7-1.8c-1,0-1.6,0.9-1.6,1.8c0,1,0.6,1.9,1.6,1.9C222.2,357.4,222.8,356.5,222.8,355.5z"/>
		<path class="st7" d="M226.7,353.8L226.7,353.8c0.3-0.6,0.8-1,1.4-1c0.3,0,0.6,0.1,0.8,0.3l-0.5,0.9c-0.2-0.2-0.4-0.2-0.6-0.2
			c-1.1,0-1.2,1-1.2,1.8v2.5h-1v-5.1h1V353.8z"/>
		<path class="st7" d="M230.8,355.7c0,0.9,0.6,1.7,1.6,1.7c0.8,0,1.2-0.4,1.5-1l0.8,0.5c-0.5,0.9-1.4,1.4-2.4,1.4
			c-1.6,0-2.5-1.2-2.5-2.7c0-1.6,0.8-2.8,2.5-2.8c1.6,0,2.4,1.2,2.4,2.7v0.2H230.8z M233.7,354.9c-0.1-0.8-0.6-1.3-1.4-1.3
			c-0.8,0-1.3,0.5-1.5,1.3H233.7z"/>
		<path class="st7" d="M238.3,354.1c-0.1-0.3-0.4-0.5-0.7-0.5c-0.3,0-0.5,0.2-0.5,0.5c0,0.5,0.6,0.6,1.2,0.9s1.2,0.6,1.2,1.5
			c0,1-0.8,1.7-1.8,1.7c-0.7,0-1.5-0.4-1.8-1.2l0.8-0.4c0.2,0.4,0.5,0.7,0.9,0.7c0.4,0,0.8-0.3,0.8-0.7c0-0.3-0.1-0.4-0.4-0.6
			l-1-0.5c-0.6-0.3-1-0.6-1-1.3c0-0.8,0.7-1.5,1.5-1.5c0.6,0,1.1,0.3,1.4,0.9L238.3,354.1z"/>
		<path class="st7" d="M243.2,354.1c-0.1-0.3-0.4-0.5-0.7-0.5c-0.3,0-0.5,0.2-0.5,0.5c0,0.5,0.6,0.6,1.2,0.9s1.2,0.6,1.2,1.5
			c0,1-0.8,1.7-1.8,1.7c-0.7,0-1.5-0.4-1.8-1.2l0.8-0.4c0.2,0.4,0.5,0.7,0.9,0.7c0.4,0,0.8-0.3,0.8-0.7c0-0.3-0.1-0.4-0.4-0.6
			l-1-0.5c-0.6-0.3-1-0.6-1-1.3c0-0.8,0.7-1.5,1.5-1.5c0.6,0,1.1,0.3,1.4,0.9L243.2,354.1z"/>
		<path class="st7" d="M247.4,350.6c0,0.4-0.3,0.7-0.7,0.7c-0.4,0-0.7-0.3-0.7-0.7c0-0.4,0.3-0.7,0.7-0.7
			C247.1,349.9,247.4,350.2,247.4,350.6z M247.2,358.1h-1v-5.1h1V358.1z"/>
		<path class="st7" d="M254.5,355.5c0,1.6-1.2,2.7-2.8,2.7c-1.5,0-2.8-1.2-2.8-2.7c0-1.6,1.2-2.7,2.8-2.7
			C253.3,352.8,254.5,354,254.5,355.5z M250,355.5c0,1,0.8,1.8,1.8,1.8c1,0,1.8-0.8,1.8-1.8c0-1-0.8-1.8-1.8-1.8
			C250.8,353.7,250,354.5,250,355.5z"/>
		<path class="st7" d="M257,353.6L257,353.6c0.3-0.6,0.9-0.8,1.6-0.8c1.5,0,1.8,1,1.8,2.2v3.1h-1v-2.9c0-0.9-0.1-1.5-1.1-1.5
			c-1.3,0-1.3,1.1-1.3,2.1v2.4h-1v-5.1h1V353.6z"/>
		<path class="st7" d="M264.4,357.1l-1.5,2.9l-0.6-0.3l1.2-3L264.4,357.1z"/>
		<path class="st7" d="M213.9,365.9v0.3c0,2.3-1.6,4-3.9,4c-2.3,0-4.2-2-4.2-4.3c0-2.4,1.9-4.3,4.3-4.3c1.3,0,2.6,0.6,3.4,1.6
			l-0.7,0.7c-0.6-0.8-1.6-1.4-2.6-1.4c-1.9,0-3.3,1.5-3.3,3.4c0,1.7,1.4,3.4,3.2,3.4c1.3,0,2.7-1.1,2.7-2.5h-2.1v-0.9H213.9z"/>
		<path class="st7" d="M216.6,369.1h2.5v0.9h-3.6v-8.3h1V369.1z"/>
		<path class="st7" d="M221.9,364.6L221.9,364.6l-1,5.5h-1.1l1.7-8.6l2.8,6.5l2.8-6.5l1.7,8.6h-1.1l-1-5.5h0l-2.5,5.7L221.9,364.6z"
			/>
	</g>
</g>
<g>
	<g>
		<path class="st7" d="M196.8,403.4c-0.3-0.5-0.7-0.8-1.3-0.8c-0.7,0-1.4,0.5-1.4,1.2c0,0.6,0.6,1,1.2,1.2l0.6,0.2
			c1.2,0.5,2.1,1.1,2.1,2.5c0,1.5-1.2,2.6-2.7,2.6c-1.3,0-2.4-1-2.6-2.3l1-0.2c0,0.9,0.7,1.6,1.6,1.6s1.5-0.7,1.5-1.6
			c0-0.9-0.7-1.3-1.4-1.6l-0.6-0.2c-0.9-0.4-1.8-0.9-1.8-2.1c0-1.3,1.2-2.1,2.4-2.1c0.9,0,1.7,0.5,2.1,1.3L196.8,403.4z"/>
		<path class="st7" d="M202.4,407.9l2.5-6.1h1.1l-3.6,8.7l-3.6-8.7h1.1L202.4,407.9z"/>
		<path class="st7" d="M212.6,410.1h-1.3l-2.4-3.5h-0.4v3.5h-1v-8.3h1.3c0.7,0,1.5,0,2.2,0.4c0.7,0.4,1.1,1.2,1.1,2
			c0,1.2-0.8,2.2-2,2.3L212.6,410.1z M208.4,405.7h0.3c1.1,0,2.2-0.2,2.2-1.5c0-1.3-1.2-1.5-2.3-1.5h-0.3V405.7z"/>
		<path class="st7" d="M215.9,409.1l-1.5,2.9l-0.6-0.3l1.2-3L215.9,409.1z"/>
		<path class="st7" d="M229.3,405.9v0.3c0,2.3-1.6,4-3.9,4c-2.3,0-4.2-2-4.2-4.3c0-2.4,1.9-4.3,4.3-4.3c1.3,0,2.6,0.6,3.4,1.6
			l-0.7,0.7c-0.6-0.8-1.6-1.4-2.6-1.4c-1.9,0-3.3,1.5-3.3,3.4c0,1.7,1.4,3.4,3.2,3.4c1.3,0,2.7-1.1,2.7-2.5H226v-0.9H229.3z"/>
		<path class="st7" d="M232,410.1h-1v-8.3h1.2c2.6,0,3.3,0.9,3.3,2.4c0,1.8-1.3,2.4-2.9,2.4H232V410.1z M232,405.7h0.3
			c1.1,0,2.2-0.2,2.2-1.5c0-1.3-1.2-1.5-2.3-1.5H232V405.7z"/>
		<path class="st7" d="M242.2,410.1H241l-2.4-3.5h-0.4v3.5h-1v-8.3h1.3c0.7,0,1.5,0,2.2,0.4c0.7,0.4,1.1,1.2,1.1,2
			c0,1.2-0.8,2.2-2,2.3L242.2,410.1z M238.1,405.7h0.3c1.1,0,2.2-0.2,2.2-1.5c0-1.3-1.2-1.5-2.3-1.5h-0.3V405.7z"/>
	</g>
</g>
<g>
	<g>
		<path class="st7" d="M170.1,448.2h4.5v0.9h-3.4v2.3h3.3v0.9h-3.3v3.1h3.4v0.9h-4.5V448.2z"/>
		<path class="st7" d="M177.4,452L177.4,452c0.3-0.5,0.9-0.8,1.6-0.8c1.5,0,1.8,1,1.8,2.2v3.1h-1v-2.9c0-0.9-0.1-1.5-1.1-1.5
			c-1.3,0-1.3,1.1-1.3,2.1v2.4h-1v-5.1h1V452z"/>
		<path class="st7" d="M184.9,452.5c-0.1-0.3-0.4-0.5-0.7-0.5c-0.3,0-0.5,0.2-0.5,0.5c0,0.5,0.6,0.6,1.2,0.9
			c0.6,0.3,1.2,0.6,1.2,1.5c0,1-0.8,1.7-1.8,1.7c-0.7,0-1.5-0.4-1.8-1.2l0.8-0.4c0.2,0.4,0.5,0.7,0.9,0.7c0.4,0,0.8-0.3,0.8-0.7
			c0-0.3-0.1-0.4-0.4-0.6l-1-0.5c-0.6-0.3-1-0.6-1-1.3c0-0.8,0.7-1.5,1.5-1.5c0.6,0,1.1,0.3,1.4,0.9L184.9,452.5z"/>
		<path class="st7" d="M188.3,454c0,0.9,0.6,1.7,1.6,1.7c0.8,0,1.2-0.4,1.5-1l0.8,0.5c-0.5,0.9-1.4,1.4-2.4,1.4
			c-1.6,0-2.5-1.2-2.5-2.7c0-1.6,0.8-2.8,2.5-2.8c1.6,0,2.4,1.2,2.4,2.7v0.2H188.3z M191.2,453.3c-0.1-0.8-0.6-1.3-1.4-1.3
			c-0.8,0-1.3,0.6-1.5,1.3H191.2z"/>
		<path class="st7" d="M194.7,451.9L194.7,451.9c0.3-0.5,0.8-0.8,1.4-0.8c0.7,0,1.2,0.3,1.5,0.9c0.3-0.6,0.9-0.9,1.6-0.9
			c1.4,0,1.7,1.1,1.7,2.2v3.1h-1v-2.9c0-0.7-0.1-1.5-1-1.5c-1.1,0-1.1,1.1-1.1,1.9v2.5h-1v-2.7c0-0.7,0-1.7-0.9-1.7
			c-1.1,0-1.1,1.1-1.1,1.9v2.5h-1v-5.1h1V451.9z"/>
		<path class="st7" d="M202.8,446.9h1v5.3h0c0.4-0.6,1-1,1.8-1c1.5,0,2.4,1.3,2.4,2.7c0,1.5-0.9,2.8-2.5,2.8c-0.7,0-1.4-0.4-1.7-1h0
			v0.8h-1V446.9z M207,453.9c0-1-0.6-1.8-1.7-1.8c-1,0-1.6,0.9-1.6,1.8c0,1,0.6,1.9,1.6,1.9C206.4,455.7,207,454.9,207,453.9z"/>
		<path class="st7" d="M210.6,456.4h-1v-9.5h1V456.4z"/>
		<path class="st7" d="M213.3,454c0,0.9,0.6,1.7,1.6,1.7c0.8,0,1.2-0.4,1.5-1l0.8,0.5c-0.5,0.9-1.4,1.4-2.4,1.4
			c-1.6,0-2.5-1.2-2.5-2.7c0-1.6,0.8-2.8,2.5-2.8c1.6,0,2.4,1.2,2.4,2.7v0.2H213.3z M216.2,453.3c-0.1-0.8-0.6-1.3-1.4-1.3
			c-0.8,0-1.3,0.6-1.5,1.3H216.2z"/>
		<path class="st7" d="M224.1,451L224.1,451l-1,5.5H222l1.7-8.6l2.8,6.5l2.8-6.5l1.7,8.6h-1.1l-1-5.5h0l-2.5,5.7L224.1,451z"/>
		<path class="st7" d="M233.2,454c0,0.9,0.6,1.7,1.6,1.7c0.8,0,1.2-0.4,1.5-1l0.8,0.5c-0.5,0.9-1.4,1.4-2.4,1.4
			c-1.6,0-2.5-1.2-2.5-2.7c0-1.6,0.8-2.8,2.5-2.8c1.6,0,2.4,1.2,2.4,2.7v0.2H233.2z M236.1,453.3c-0.1-0.8-0.6-1.3-1.4-1.3
			c-0.8,0-1.3,0.6-1.5,1.3H236.1z"/>
		<path class="st7" d="M239.8,456.4h-1v-4.2h-0.5v-0.9h0.5v-2h1v2h1v0.9h-1V456.4z"/>
		<path class="st7" d="M242.9,446.9v5.1h0c0.3-0.5,0.9-0.8,1.6-0.8c1.5,0,1.8,1,1.8,2.2v3.1h-1v-2.9c0-0.9-0.1-1.5-1.1-1.5
			c-1.3,0-1.3,1.1-1.3,2.1v2.4h-1v-9.5H242.9z"/>
		<path class="st7" d="M253.4,453.9c0,1.6-1.2,2.7-2.8,2.7c-1.5,0-2.8-1.2-2.8-2.7c0-1.6,1.2-2.7,2.8-2.7
			C252.2,451.1,253.4,452.3,253.4,453.9z M248.9,453.9c0,1,0.8,1.8,1.8,1.8c1,0,1.8-0.8,1.8-1.8c0-1-0.8-1.8-1.8-1.8
			C249.6,452.1,248.9,452.9,248.9,453.9z"/>
		<path class="st7" d="M258.8,455.6L258.8,455.6c-0.4,0.6-1,1-1.8,1c-1.6,0-2.5-1.3-2.5-2.8c0-1.4,0.9-2.7,2.4-2.7
			c0.8,0,1.4,0.4,1.8,1h0v-5.3h1v9.5h-1V455.6z M258.8,453.9c0-1-0.6-1.8-1.7-1.8c-1,0-1.6,0.9-1.6,1.8c0,1,0.6,1.9,1.6,1.9
			C258.2,455.7,258.8,454.9,258.8,453.9z"/>
		<path class="st7" d="M263.8,452.5c-0.1-0.3-0.4-0.5-0.7-0.5c-0.3,0-0.5,0.2-0.5,0.5c0,0.5,0.6,0.6,1.2,0.9
			c0.6,0.3,1.2,0.6,1.2,1.5c0,1-0.8,1.7-1.8,1.7c-0.7,0-1.5-0.4-1.8-1.2l0.8-0.4c0.2,0.4,0.5,0.7,0.9,0.7c0.4,0,0.8-0.3,0.8-0.7
			c0-0.3-0.1-0.4-0.4-0.6l-1-0.5c-0.6-0.3-1-0.6-1-1.3c0-0.8,0.7-1.5,1.5-1.5c0.6,0,1.1,0.3,1.4,0.9L263.8,452.5z"/>
	</g>
</g>
<g>
	<g>
		<path class="st7" d="M181.1,493.8h1.7c2.5,0,4.7,1.3,4.7,4.1c0,2.8-2.1,4.2-4.7,4.2h-1.7V493.8z M182.2,501.1h0.4
			c2.1,0,3.9-0.8,3.9-3.2c0-2.4-1.8-3.2-3.9-3.2h-0.4V501.1z"/>
		<path class="st7" d="M189.7,499.7c0,0.9,0.6,1.7,1.6,1.7c0.8,0,1.2-0.4,1.5-1l0.8,0.5c-0.5,0.9-1.4,1.4-2.4,1.4
			c-1.6,0-2.5-1.2-2.5-2.7c0-1.6,0.8-2.8,2.5-2.8c1.6,0,2.4,1.2,2.4,2.7v0.2H189.7z M192.6,498.9c-0.1-0.8-0.6-1.3-1.4-1.3
			c-0.8,0-1.3,0.6-1.5,1.3H192.6z"/>
		<path class="st7" d="M198.9,498.4c-0.4-0.5-0.9-0.7-1.5-0.7c-1,0-1.7,0.9-1.7,1.8c0,1.1,0.7,1.8,1.8,1.8c0.6,0,1-0.3,1.4-0.7v1.3
			c-0.5,0.2-0.9,0.3-1.4,0.3c-1.5,0-2.8-1.2-2.8-2.7c0-1.6,1.2-2.8,2.8-2.8c0.5,0,1,0.1,1.4,0.3V498.4z"/>
		<path class="st7" d="M202,494.6c0,0.4-0.3,0.7-0.7,0.7c-0.4,0-0.7-0.3-0.7-0.7c0-0.4,0.3-0.7,0.7-0.7
			C201.7,493.9,202,494.2,202,494.6z M201.8,502.1h-1v-5.1h1V502.1z"/>
		<path class="st7" d="M206.1,498.1c-0.1-0.3-0.4-0.5-0.7-0.5c-0.3,0-0.5,0.2-0.5,0.5c0,0.5,0.6,0.6,1.2,0.9
			c0.6,0.3,1.2,0.6,1.2,1.5c0,1-0.8,1.7-1.8,1.7c-0.7,0-1.5-0.4-1.8-1.2l0.8-0.4c0.2,0.4,0.5,0.7,0.9,0.7c0.4,0,0.8-0.3,0.8-0.7
			c0-0.3-0.1-0.4-0.4-0.6l-1-0.5c-0.6-0.3-1-0.6-1-1.3c0-0.8,0.7-1.5,1.5-1.5c0.6,0,1.1,0.3,1.4,0.9L206.1,498.1z"/>
		<path class="st7" d="M210.4,494.6c0,0.4-0.3,0.7-0.7,0.7c-0.4,0-0.7-0.3-0.7-0.7c0-0.4,0.3-0.7,0.7-0.7
			C210,493.9,210.4,494.2,210.4,494.6z M210.2,502.1h-1v-5.1h1V502.1z"/>
		<path class="st7" d="M217.4,499.5c0,1.6-1.2,2.7-2.8,2.7c-1.5,0-2.8-1.2-2.8-2.7c0-1.6,1.2-2.7,2.8-2.7
			C216.2,496.8,217.4,498,217.4,499.5z M212.9,499.5c0,1,0.8,1.8,1.8,1.8c1,0,1.8-0.8,1.8-1.8c0-1-0.8-1.8-1.8-1.8
			C213.7,497.7,212.9,498.5,212.9,499.5z"/>
		<path class="st7" d="M220,497.6L220,497.6c0.3-0.5,0.9-0.8,1.6-0.8c1.5,0,1.8,1,1.8,2.2v3.1h-1v-2.9c0-0.9-0.1-1.5-1.1-1.5
			c-1.3,0-1.3,1.1-1.3,2.1v2.4h-1v-5.1h1V497.6z"/>
		<path class="st7" d="M231.6,502.1h-1v-7.3h-2v-0.9h5v0.9h-2V502.1z"/>
		<path class="st7" d="M235.1,497.8L235.1,497.8c0.3-0.6,0.8-1,1.4-1c0.3,0,0.6,0.1,0.8,0.3l-0.5,0.9c-0.2-0.2-0.4-0.2-0.6-0.2
			c-1.1,0-1.2,1-1.2,1.8v2.5h-1v-5.1h1V497.8z"/>
		<path class="st7" d="M239.2,499.7c0,0.9,0.6,1.7,1.6,1.7c0.8,0,1.2-0.4,1.5-1l0.8,0.5c-0.5,0.9-1.4,1.4-2.4,1.4
			c-1.6,0-2.5-1.2-2.5-2.7c0-1.6,0.8-2.8,2.5-2.8c1.6,0,2.4,1.2,2.4,2.7v0.2H239.2z M242.1,498.9c-0.1-0.8-0.6-1.3-1.4-1.3
			c-0.8,0-1.3,0.6-1.5,1.3H242.1z"/>
		<path class="st7" d="M245.2,499.7c0,0.9,0.6,1.7,1.6,1.7c0.8,0,1.2-0.4,1.5-1l0.8,0.5c-0.5,0.9-1.4,1.4-2.4,1.4
			c-1.6,0-2.5-1.2-2.5-2.7c0-1.6,0.8-2.8,2.5-2.8c1.6,0,2.4,1.2,2.4,2.7v0.2H245.2z M248.1,498.9c-0.1-0.8-0.6-1.3-1.4-1.3
			c-0.8,0-1.3,0.6-1.5,1.3H248.1z"/>
		<path class="st7" d="M252.7,498.1c-0.1-0.3-0.4-0.5-0.7-0.5c-0.3,0-0.5,0.2-0.5,0.5c0,0.5,0.6,0.6,1.2,0.9
			c0.6,0.3,1.2,0.6,1.2,1.5c0,1-0.8,1.7-1.8,1.7c-0.7,0-1.5-0.4-1.8-1.2l0.8-0.4c0.2,0.4,0.5,0.7,0.9,0.7c0.4,0,0.8-0.3,0.8-0.7
			c0-0.3-0.1-0.4-0.4-0.6l-1-0.5c-0.6-0.3-1-0.6-1-1.3c0-0.8,0.7-1.5,1.5-1.5c0.6,0,1.1,0.3,1.4,0.9L252.7,498.1z"/>
	</g>
</g>
<g>
	<g>
		<path class="st7" d="M173.9,540.4l6.2,6.5v-6.1h1v8.6l-6.2-6.5v6.2h-1V540.4z"/>
		<path class="st7" d="M183.8,546.7c0,0.9,0.6,1.7,1.6,1.7c0.8,0,1.2-0.4,1.5-1l0.8,0.5c-0.5,0.9-1.4,1.4-2.4,1.4
			c-1.6,0-2.5-1.2-2.5-2.7c0-1.6,0.8-2.8,2.5-2.8c1.6,0,2.4,1.2,2.4,2.7v0.2H183.8z M186.7,546c-0.1-0.8-0.6-1.3-1.4-1.3
			c-0.8,0-1.3,0.6-1.5,1.3H186.7z"/>
		<path class="st7" d="M190.2,544v2.8c0,0.8,0.2,1.6,1.2,1.6s1.2-0.7,1.2-1.6V544h1v3c0,1.4-0.7,2.4-2.2,2.4s-2.2-1-2.2-2.4v-3
			H190.2z"/>
		<path class="st7" d="M196.6,544.8L196.6,544.8c0.3-0.6,0.8-1,1.4-1c0.3,0,0.6,0.1,0.8,0.3l-0.5,0.9c-0.2-0.2-0.4-0.2-0.6-0.2
			c-1.1,0-1.2,1-1.2,1.8v2.5h-1V544h1V544.8z"/>
		<path class="st7" d="M204.9,549.1h-1v-0.8h0c-0.4,0.6-1,1-1.7,1c-1.6,0-2.5-1.3-2.5-2.8c0-1.4,0.9-2.7,2.4-2.7
			c0.8,0,1.4,0.4,1.8,1h0V544h1V549.1z M203.9,546.6c0-1-0.6-1.8-1.7-1.8c-1,0-1.6,0.9-1.6,1.8c0,1,0.6,1.9,1.6,1.9
			C203.4,548.4,203.9,547.6,203.9,546.6z"/>
		<path class="st7" d="M207.9,549.1h-1v-9.5h1V549.1z"/>
		<path class="st7" d="M213.8,540.4l6.2,6.5v-6.1h1v8.6l-6.2-6.5v6.2h-1V540.4z"/>
		<path class="st7" d="M223.7,546.7c0,0.9,0.6,1.7,1.6,1.7c0.8,0,1.2-0.4,1.5-1l0.8,0.5c-0.5,0.9-1.4,1.4-2.4,1.4
			c-1.6,0-2.5-1.2-2.5-2.7c0-1.6,0.8-2.8,2.5-2.8c1.6,0,2.4,1.2,2.4,2.7v0.2H223.7z M226.6,546c-0.1-0.8-0.6-1.3-1.4-1.3
			c-0.8,0-1.3,0.6-1.5,1.3H226.6z"/>
		<path class="st7" d="M230.2,549.1h-1v-4.2h-0.5V544h0.5v-2h1v2h1v0.9h-1V549.1z"/>
		<path class="st7" d="M234.2,547.3l1.5-3.6l1.5,3.6l1.5-3.3h1.1l-2.6,5.3l-1.5-3.4l-1.5,3.4l-2.6-5.3h1.1L234.2,547.3z"/>
		<path class="st7" d="M246,546.6c0,1.6-1.2,2.7-2.8,2.7c-1.5,0-2.8-1.2-2.8-2.7c0-1.6,1.2-2.7,2.8-2.7
			C244.8,543.8,246,545,246,546.6z M241.5,546.6c0,1,0.8,1.8,1.8,1.8c1,0,1.8-0.8,1.8-1.8c0-1-0.8-1.8-1.8-1.8
			C242.3,544.8,241.5,545.6,241.5,546.6z"/>
		<path class="st7" d="M248.6,544.8L248.6,544.8c0.3-0.6,0.8-1,1.4-1c0.3,0,0.6,0.1,0.8,0.3l-0.5,0.9c-0.2-0.2-0.4-0.2-0.6-0.2
			c-1.1,0-1.2,1-1.2,1.8v2.5h-1V544h1V544.8z"/>
		<path class="st7" d="M253.1,545.9l1.9-1.9h1.3l-2.2,2.1l2.4,3h-1.3l-1.8-2.3l-0.3,0.3v2h-1v-9.5h1V545.9z"/>
		<path class="st7" d="M259.9,545.2c-0.1-0.3-0.4-0.5-0.7-0.5c-0.3,0-0.5,0.2-0.5,0.5c0,0.5,0.6,0.6,1.2,0.9
			c0.6,0.3,1.2,0.6,1.2,1.5c0,1-0.8,1.7-1.8,1.7c-0.7,0-1.5-0.4-1.8-1.2l0.8-0.4c0.2,0.4,0.5,0.7,0.9,0.7c0.4,0,0.8-0.3,0.8-0.7
			c0-0.3-0.1-0.4-0.4-0.6l-1-0.5c-0.6-0.3-1-0.6-1-1.3c0-0.8,0.7-1.5,1.5-1.5c0.6,0,1.1,0.3,1.4,0.9L259.9,545.2z"/>
	</g>
</g>
<g>
	<g>
		<path class="st7" d="M324.9,350h1.4l-3.7,3.7l3.8,4.6h-1.4l-3.1-3.9l-0.4,0.4v3.5h-1V350h1v3.6L324.9,350z"/>
		<path class="st7" d="M329.9,354.4v0.8h-2.4v-0.8H329.9z"/>
		<path class="st7" d="M333.3,352.8L333.3,352.8l-1,5.5h-1.1l1.7-8.6l2.8,6.5l2.8-6.5l1.7,8.6h-1.1l-1-5.5h0l-2.5,5.7L333.3,352.8z"
			/>
		<path class="st7" d="M342.4,355.9c0,0.9,0.6,1.7,1.6,1.7c0.8,0,1.2-0.4,1.5-1l0.8,0.5c-0.5,0.9-1.4,1.4-2.4,1.4
			c-1.6,0-2.5-1.2-2.5-2.7c0-1.6,0.8-2.8,2.5-2.8c1.6,0,2.4,1.2,2.4,2.7v0.2H342.4z M345.4,355.1c-0.1-0.8-0.6-1.3-1.4-1.3
			c-0.8,0-1.3,0.6-1.5,1.3H345.4z"/>
		<path class="st7" d="M352.7,358.3h-1v-0.8h0c-0.4,0.6-1,1-1.7,1c-1.6,0-2.5-1.3-2.5-2.8c0-1.4,0.9-2.7,2.4-2.7
			c0.8,0,1.4,0.4,1.8,1h0v-0.9h1V358.3z M351.8,355.7c0-1-0.6-1.8-1.7-1.8c-1,0-1.6,0.9-1.6,1.8c0,1,0.6,1.9,1.6,1.9
			C351.2,357.6,351.8,356.7,351.8,355.7z"/>
		<path class="st7" d="M355.6,353.8L355.6,353.8c0.3-0.5,0.9-0.8,1.6-0.8c1.5,0,1.8,1,1.8,2.2v3.1h-1v-2.9c0-0.9-0.1-1.5-1.1-1.5
			c-1.3,0-1.3,1.1-1.3,2.1v2.4h-1v-5.1h1V353.8z"/>
		<path class="st7" d="M363.1,354.3c-0.1-0.3-0.4-0.5-0.7-0.5c-0.3,0-0.5,0.2-0.5,0.5c0,0.5,0.6,0.6,1.2,0.9
			c0.6,0.3,1.2,0.6,1.2,1.5c0,1-0.8,1.7-1.8,1.7c-0.7,0-1.5-0.4-1.8-1.2l0.8-0.4c0.2,0.4,0.5,0.7,0.9,0.7c0.4,0,0.8-0.3,0.8-0.7
			c0-0.3-0.1-0.4-0.4-0.6l-1-0.5c-0.6-0.3-1-0.6-1-1.3c0-0.8,0.7-1.5,1.5-1.5c0.6,0,1.1,0.3,1.4,0.9L363.1,354.3z"/>
		<path class="st7" d="M367.9,357.3l-1.5,2.9l-0.6-0.3l1.2-3L367.9,357.3z"/>
		<path class="st7" d="M378.3,350h1.4l-3.7,3.7l3.8,4.6h-1.4l-3.1-3.9l-0.4,0.4v3.5h-1V350h1v3.6L378.3,350z"/>
		<path class="st7" d="M383.2,354.4v0.8h-2.4v-0.8H383.2z"/>
		<path class="st7" d="M386.7,352.8L386.7,352.8l-1,5.5h-1.1l1.7-8.6l2.8,6.5l2.8-6.5l1.7,8.6h-1.1l-1-5.5h0l-2.5,5.7L386.7,352.8z"
			/>
		<path class="st7" d="M395.8,355.9c0,0.9,0.6,1.7,1.6,1.7c0.8,0,1.2-0.4,1.5-1l0.8,0.5c-0.5,0.9-1.4,1.4-2.4,1.4
			c-1.6,0-2.5-1.2-2.5-2.7c0-1.6,0.8-2.8,2.5-2.8c1.6,0,2.4,1.2,2.4,2.7v0.2H395.8z M398.7,355.1c-0.1-0.8-0.6-1.3-1.4-1.3
			c-0.8,0-1.3,0.6-1.5,1.3H398.7z"/>
		<path class="st7" d="M405.1,357.5L405.1,357.5c-0.4,0.6-1,1-1.8,1c-1.6,0-2.5-1.3-2.5-2.8c0-1.4,0.9-2.7,2.4-2.7
			c0.8,0,1.4,0.4,1.8,1h0v-5.3h1v9.5h-1V357.5z M405.1,355.7c0-1-0.6-1.8-1.7-1.8c-1,0-1.6,0.9-1.6,1.8c0,1,0.6,1.9,1.6,1.9
			C404.5,357.6,405.1,356.7,405.1,355.7z"/>
		<path class="st7" d="M413,355.7c0,1.6-1.2,2.7-2.8,2.7s-2.8-1.2-2.8-2.7c0-1.6,1.2-2.7,2.8-2.7S413,354.2,413,355.7z M408.5,355.7
			c0,1,0.8,1.8,1.8,1.8s1.8-0.8,1.8-1.8c0-1-0.8-1.8-1.8-1.8S408.5,354.8,408.5,355.7z"/>
		<path class="st7" d="M416,350.8c0,0.4-0.3,0.7-0.7,0.7c-0.4,0-0.7-0.3-0.7-0.7c0-0.4,0.3-0.7,0.7-0.7
			C415.7,350.1,416,350.4,416,350.8z M415.8,358.3h-1v-5.1h1V358.3z"/>
		<path class="st7" d="M421.9,357.5L421.9,357.5c-0.4,0.6-1,1-1.8,1c-1.6,0-2.5-1.3-2.5-2.8c0-1.4,0.9-2.7,2.4-2.7
			c0.8,0,1.4,0.4,1.8,1h0v-5.3h1v9.5h-1V357.5z M422,355.7c0-1-0.6-1.8-1.7-1.8c-1,0-1.6,0.9-1.6,1.8c0,1,0.6,1.9,1.6,1.9
			C421.4,357.6,422,356.7,422,355.7z"/>
		<path class="st7" d="M426.9,354.3c-0.1-0.3-0.4-0.5-0.7-0.5c-0.3,0-0.5,0.2-0.5,0.5c0,0.5,0.6,0.6,1.2,0.9
			c0.6,0.3,1.2,0.6,1.2,1.5c0,1-0.8,1.7-1.8,1.7c-0.7,0-1.5-0.4-1.8-1.2l0.8-0.4c0.2,0.4,0.5,0.7,0.9,0.7c0.4,0,0.8-0.3,0.8-0.7
			c0-0.3-0.1-0.4-0.4-0.6l-1-0.5c-0.6-0.3-1-0.6-1-1.3c0-0.8,0.7-1.5,1.5-1.5c0.6,0,1.1,0.3,1.4,0.9L426.9,354.3z"/>
		<path class="st7" d="M335.8,362.9v2.3h2.9v0.9h-2.9v4.1h-1V362h4v0.9H335.8z"/>
		<path class="st7" d="M341.5,365.1v2.8c0,0.8,0.2,1.6,1.2,1.6c1,0,1.2-0.7,1.2-1.6v-2.8h1v3c0,1.4-0.7,2.4-2.2,2.4
			c-1.5,0-2.2-1-2.2-2.4v-3H341.5z"/>
		<path class="st7" d="M351.5,369.4v0.9h-5.3l3.5-4.2h-2.9v-0.9h4.8l-3.5,4.2H351.5z"/>
		<path class="st7" d="M357.6,369.4v0.9h-5.3l3.5-4.2h-2.9v-0.9h4.8l-3.5,4.2H357.6z"/>
		<path class="st7" d="M358.2,365.1h1.2l1.7,3.3l1.6-3.3h1.1l-4.2,8.1h-1.1l2-3.8L358.2,365.1z"/>
		<path class="st7" d="M375,363.6c-0.6-0.5-1.4-0.8-2.2-0.8c-1.9,0-3.3,1.6-3.3,3.4c0,1.8,1.4,3.4,3.3,3.4c0.8,0,1.6-0.3,2.2-0.9
			v1.2c-0.6,0.4-1.5,0.6-2.2,0.6c-2.4,0-4.3-1.9-4.3-4.3c0-2.5,2-4.4,4.4-4.4c0.7,0,1.5,0.2,2.1,0.6V363.6z"/>
		<path class="st7" d="M379.2,366.4v0.8h-2.4v-0.8H379.2z"/>
		<path class="st7" d="M382.7,364.8L382.7,364.8l-1,5.5h-1.1l1.7-8.6l2.8,6.5l2.8-6.5l1.7,8.6h-1.1l-1-5.5h0l-2.5,5.7L382.7,364.8z"
			/>
		<path class="st7" d="M391.8,367.9c0,0.9,0.6,1.7,1.6,1.7c0.8,0,1.2-0.4,1.5-1l0.8,0.5c-0.5,0.9-1.4,1.4-2.4,1.4
			c-1.6,0-2.5-1.2-2.5-2.7c0-1.6,0.8-2.8,2.5-2.8c1.6,0,2.4,1.2,2.4,2.7v0.2H391.8z M394.7,367.1c-0.1-0.8-0.6-1.3-1.4-1.3
			c-0.8,0-1.3,0.6-1.5,1.3H394.7z"/>
		<path class="st7" d="M402,370.3h-1v-0.8h0c-0.4,0.6-1,1-1.7,1c-1.6,0-2.5-1.3-2.5-2.8c0-1.4,0.9-2.7,2.4-2.7c0.8,0,1.4,0.4,1.8,1
			h0v-0.9h1V370.3z M401.1,367.7c0-1-0.6-1.8-1.7-1.8c-1,0-1.6,0.9-1.6,1.8c0,1,0.6,1.9,1.6,1.9
			C400.5,369.6,401.1,368.7,401.1,367.7z"/>
		<path class="st7" d="M405,365.8L405,365.8c0.3-0.5,0.9-0.8,1.6-0.8c1.5,0,1.8,1,1.8,2.2v3.1h-1v-2.9c0-0.9-0.1-1.5-1.1-1.5
			c-1.3,0-1.3,1.1-1.3,2.1v2.4h-1v-5.1h1V365.8z"/>
		<path class="st7" d="M412.4,366.3c-0.1-0.3-0.4-0.5-0.7-0.5c-0.3,0-0.5,0.2-0.5,0.5c0,0.5,0.6,0.6,1.2,0.9
			c0.6,0.3,1.2,0.6,1.2,1.5c0,1-0.8,1.7-1.8,1.7c-0.7,0-1.5-0.4-1.8-1.2l0.8-0.4c0.2,0.4,0.5,0.7,0.9,0.7c0.4,0,0.8-0.3,0.8-0.7
			c0-0.3-0.1-0.4-0.4-0.6l-1-0.5c-0.6-0.3-1-0.6-1-1.3c0-0.8,0.7-1.5,1.5-1.5c0.6,0,1.1,0.3,1.4,0.9L412.4,366.3z"/>
	</g>
</g>
<g>
	<g>
		<path class="st7" d="M347.9,405.4V402h1v8.3h-1v-4h-4v4h-1V402h1v3.3H347.9z"/>
		<path class="st7" d="M352.4,402.8c0,0.4-0.3,0.7-0.7,0.7s-0.7-0.3-0.7-0.7c0-0.4,0.3-0.7,0.7-0.7S352.4,402.5,352.4,402.8z
			 M352.2,410.3h-1v-5.1h1V410.3z"/>
		<path class="st7" d="M355,407.9c0,0.9,0.6,1.7,1.6,1.7c0.8,0,1.2-0.4,1.5-1l0.8,0.5c-0.5,0.9-1.4,1.4-2.4,1.4
			c-1.6,0-2.5-1.2-2.5-2.7c0-1.6,0.8-2.8,2.5-2.8c1.6,0,2.4,1.2,2.4,2.7v0.2H355z M358,407.2c-0.1-0.8-0.6-1.3-1.4-1.3
			c-0.8,0-1.3,0.6-1.5,1.3H358z"/>
		<path class="st7" d="M361.5,406L361.5,406c0.3-0.6,0.8-1,1.4-1c0.3,0,0.6,0.1,0.8,0.3l-0.5,0.9c-0.2-0.2-0.4-0.2-0.6-0.2
			c-1.1,0-1.2,1-1.2,1.8v2.5h-1v-5.1h1V406z"/>
		<path class="st7" d="M369.8,410.3h-1v-0.8h0c-0.4,0.6-1,1-1.7,1c-1.6,0-2.5-1.3-2.5-2.8c0-1.4,0.9-2.7,2.4-2.7
			c0.8,0,1.4,0.4,1.8,1h0v-0.9h1V410.3z M368.9,407.8c0-1-0.6-1.8-1.7-1.8c-1,0-1.6,0.9-1.6,1.8c0,1,0.6,1.9,1.6,1.9
			C368.3,409.6,368.9,408.8,368.9,407.8z"/>
		<path class="st7" d="M372.8,406L372.8,406c0.3-0.6,0.8-1,1.4-1c0.3,0,0.6,0.1,0.8,0.3l-0.5,0.9c-0.2-0.2-0.4-0.2-0.6-0.2
			c-1.1,0-1.2,1-1.2,1.8v2.5h-1v-5.1h1V406z"/>
		<path class="st7" d="M380.1,406.7c-0.4-0.5-0.9-0.7-1.5-0.7c-1,0-1.7,0.9-1.7,1.8c0,1.1,0.7,1.8,1.8,1.8c0.6,0,1-0.3,1.4-0.7v1.3
			c-0.5,0.2-0.9,0.3-1.4,0.3c-1.5,0-2.8-1.2-2.8-2.7c0-1.6,1.2-2.8,2.8-2.8c0.5,0,1,0.1,1.4,0.3V406.7z"/>
		<path class="st7" d="M382.8,400.8v5.1h0c0.3-0.5,0.9-0.8,1.6-0.8c1.5,0,1.8,1,1.8,2.2v3.1h-1v-2.9c0-0.9-0.1-1.5-1.1-1.5
			c-1.3,0-1.3,1.1-1.3,2.1v2.4h-1v-9.5H382.8z"/>
		<path class="st7" d="M389.6,402.8c0,0.4-0.3,0.7-0.7,0.7c-0.4,0-0.7-0.3-0.7-0.7c0-0.4,0.3-0.7,0.7-0.7
			C389.3,402.1,389.6,402.5,389.6,402.8z M389.4,410.3h-1v-5.1h1V410.3z"/>
		<path class="st7" d="M395.4,406.7c-0.4-0.5-0.9-0.7-1.5-0.7c-1,0-1.7,0.9-1.7,1.8c0,1.1,0.7,1.8,1.8,1.8c0.6,0,1-0.3,1.4-0.7v1.3
			c-0.5,0.2-0.9,0.3-1.4,0.3c-1.5,0-2.8-1.2-2.8-2.7c0-1.6,1.2-2.8,2.8-2.8c0.5,0,1,0.1,1.4,0.3V406.7z"/>
		<path class="st7" d="M402,410.3h-1v-0.8h0c-0.4,0.6-1,1-1.7,1c-1.6,0-2.5-1.3-2.5-2.8c0-1.4,0.9-2.7,2.4-2.7c0.8,0,1.4,0.4,1.8,1
			h0v-0.9h1V410.3z M401.1,407.8c0-1-0.6-1.8-1.7-1.8c-1,0-1.6,0.9-1.6,1.8c0,1,0.6,1.9,1.6,1.9
			C400.5,409.6,401.1,408.8,401.1,407.8z"/>
		<path class="st7" d="M405,410.3h-1v-9.5h1V410.3z"/>
	</g>
</g>
<g>
	<g>
		<path class="st7" d="M336.5,451.9v0.3c0,2.3-1.6,4-3.9,4s-4.2-2-4.2-4.3c0-2.4,1.9-4.3,4.3-4.3c1.3,0,2.6,0.6,3.4,1.6l-0.7,0.7
			c-0.6-0.8-1.6-1.4-2.6-1.4c-1.9,0-3.3,1.5-3.3,3.4c0,1.7,1.4,3.4,3.2,3.4c1.3,0,2.7-1.1,2.7-2.5h-2.1v-0.9H336.5z"/>
		<path class="st7" d="M342.9,456.1h-1v-0.8h0c-0.4,0.6-1,1-1.7,1c-1.6,0-2.5-1.3-2.5-2.8c0-1.4,0.9-2.7,2.4-2.7
			c0.8,0,1.4,0.4,1.8,1h0V451h1V456.1z M342,453.5c0-1-0.6-1.8-1.7-1.8c-1,0-1.6,0.9-1.6,1.8c0,1,0.6,1.9,1.6,1.9
			C341.4,455.4,342,454.5,342,453.5z"/>
		<path class="st7" d="M345.8,451v2.8c0,0.8,0.2,1.6,1.2,1.6c1,0,1.2-0.7,1.2-1.6V451h1v3c0,1.4-0.7,2.4-2.2,2.4
			c-1.5,0-2.2-1-2.2-2.4v-3H345.8z"/>
		<path class="st7" d="M353.2,452.1c-0.1-0.3-0.4-0.5-0.7-0.5c-0.3,0-0.5,0.2-0.5,0.5c0,0.5,0.6,0.6,1.2,0.9
			c0.6,0.3,1.2,0.6,1.2,1.5c0,1-0.8,1.7-1.8,1.7c-0.7,0-1.5-0.4-1.8-1.2l0.8-0.4c0.2,0.4,0.5,0.7,0.9,0.7c0.4,0,0.8-0.3,0.8-0.7
			c0-0.3-0.1-0.4-0.4-0.6l-1-0.5c-0.6-0.3-1-0.6-1-1.3c0-0.8,0.7-1.5,1.5-1.5c0.6,0,1.1,0.3,1.4,0.9L353.2,452.1z"/>
		<path class="st7" d="M358.1,452.1c-0.1-0.3-0.4-0.5-0.7-0.5c-0.3,0-0.5,0.2-0.5,0.5c0,0.5,0.6,0.6,1.2,0.9
			c0.6,0.3,1.2,0.6,1.2,1.5c0,1-0.8,1.7-1.8,1.7c-0.7,0-1.5-0.4-1.8-1.2l0.8-0.4c0.2,0.4,0.5,0.7,0.9,0.7c0.4,0,0.8-0.3,0.8-0.7
			c0-0.3-0.1-0.4-0.4-0.6l-1-0.5c-0.6-0.3-1-0.6-1-1.3c0-0.8,0.7-1.5,1.5-1.5c0.6,0,1.1,0.3,1.4,0.9L358.1,452.1z"/>
		<path class="st7" d="M362.3,448.6c0,0.4-0.3,0.7-0.7,0.7s-0.7-0.3-0.7-0.7c0-0.4,0.3-0.7,0.7-0.7S362.3,448.2,362.3,448.6z
			 M362.2,456.1h-1V451h1V456.1z"/>
		<path class="st7" d="M369.2,456.1h-1v-0.8h0c-0.4,0.6-1,1-1.7,1c-1.6,0-2.5-1.3-2.5-2.8c0-1.4,0.9-2.7,2.4-2.7
			c0.8,0,1.4,0.4,1.8,1h0V451h1V456.1z M368.3,453.5c0-1-0.6-1.8-1.7-1.8c-1,0-1.6,0.9-1.6,1.8c0,1,0.6,1.9,1.6,1.9
			C367.7,455.4,368.3,454.5,368.3,453.5z"/>
		<path class="st7" d="M372.2,451.7L372.2,451.7c0.3-0.5,0.9-0.8,1.6-0.8c1.5,0,1.8,1,1.8,2.2v3.1h-1v-2.9c0-0.9-0.1-1.5-1.1-1.5
			c-1.3,0-1.3,1.1-1.3,2.1v2.4h-1V451h1V451.7z"/>
		<path class="st7" d="M382.9,450.6L382.9,450.6l-1,5.5h-1.1l1.7-8.6l2.8,6.5l2.8-6.5l1.7,8.6h-1.1l-1-5.5h0l-2.5,5.7L382.9,450.6z"
			/>
		<path class="st7" d="M392.8,448.6c0,0.4-0.3,0.7-0.7,0.7s-0.7-0.3-0.7-0.7c0-0.4,0.3-0.7,0.7-0.7S392.8,448.2,392.8,448.6z
			 M392.7,456.1h-1V451h1V456.1z"/>
		<path class="st7" d="M394.5,451h1.2l1.2,1.7l1.3-1.7h1.2l-1.9,2.4l2.2,2.8h-1.2l-1.7-2.1l-1.6,2.1h-1.2l2.3-2.8L394.5,451z"/>
		<path class="st7" d="M402.1,456.1h-1v-4.2h-0.5V451h0.5v-2h1v2h1v0.9h-1V456.1z"/>
		<path class="st7" d="M405.2,451v2.8c0,0.8,0.2,1.6,1.2,1.6c1,0,1.2-0.7,1.2-1.6V451h1v3c0,1.4-0.7,2.4-2.2,2.4
			c-1.5,0-2.2-1-2.2-2.4v-3H405.2z"/>
		<path class="st7" d="M411.6,451.8L411.6,451.8c0.3-0.6,0.8-1,1.4-1c0.3,0,0.6,0.1,0.8,0.3l-0.5,0.9c-0.2-0.2-0.4-0.2-0.6-0.2
			c-1.1,0-1.2,1-1.2,1.8v2.5h-1V451h1V451.8z"/>
		<path class="st7" d="M415.6,453.7c0,0.9,0.6,1.7,1.6,1.7c0.8,0,1.2-0.4,1.5-1l0.8,0.5c-0.5,0.9-1.4,1.4-2.4,1.4
			c-1.6,0-2.5-1.2-2.5-2.7c0-1.6,0.8-2.8,2.5-2.8c1.6,0,2.4,1.2,2.4,2.7v0.2H415.6z M418.6,452.9c-0.1-0.8-0.6-1.3-1.4-1.3
			c-0.8,0-1.3,0.6-1.5,1.3H418.6z"/>
	</g>
</g>
<g>
	<g>
		<path class="st7" d="M330.6,493.9l6.2,6.5v-6.1h1v8.6l-6.2-6.5v6.2h-1V493.9z"/>
		<path class="st7" d="M340.5,500.2c0,0.9,0.6,1.7,1.6,1.7c0.8,0,1.2-0.4,1.5-1l0.8,0.5c-0.5,0.9-1.4,1.4-2.4,1.4
			c-1.6,0-2.5-1.2-2.5-2.7c0-1.6,0.8-2.8,2.5-2.8c1.6,0,2.4,1.2,2.4,2.7v0.2H340.5z M343.4,499.4c-0.1-0.8-0.6-1.3-1.4-1.3
			c-0.8,0-1.3,0.6-1.5,1.3H343.4z"/>
		<path class="st7" d="M346.9,497.5v2.8c0,0.8,0.2,1.6,1.2,1.6c1,0,1.2-0.7,1.2-1.6v-2.8h1v3c0,1.4-0.7,2.4-2.2,2.4
			c-1.5,0-2.2-1-2.2-2.4v-3H346.9z"/>
		<path class="st7" d="M353.3,498.3L353.3,498.3c0.3-0.6,0.8-1,1.4-1c0.3,0,0.6,0.1,0.8,0.3l-0.5,0.9c-0.2-0.2-0.4-0.2-0.6-0.2
			c-1.1,0-1.2,1-1.2,1.8v2.5h-1v-5.1h1V498.3z"/>
		<path class="st7" d="M361.6,502.6h-1v-0.8h0c-0.4,0.6-1,1-1.7,1c-1.6,0-2.5-1.3-2.5-2.8c0-1.4,0.9-2.7,2.4-2.7
			c0.8,0,1.4,0.4,1.8,1h0v-0.9h1V502.6z M360.6,500c0-1-0.6-1.8-1.7-1.8c-1,0-1.6,0.9-1.6,1.8c0,1,0.6,1.9,1.6,1.9
			C360,501.9,360.6,501,360.6,500z"/>
		<path class="st7" d="M364.5,502.6h-1v-9.5h1V502.6z"/>
		<path class="st7" d="M370.4,493.9l6.2,6.5v-6.1h1v8.6l-6.2-6.5v6.2h-1V493.9z"/>
		<path class="st7" d="M380.3,500.2c0,0.9,0.6,1.7,1.6,1.7c0.8,0,1.2-0.4,1.5-1l0.8,0.5c-0.5,0.9-1.4,1.4-2.4,1.4
			c-1.6,0-2.5-1.2-2.5-2.7c0-1.6,0.8-2.8,2.5-2.8c1.6,0,2.4,1.2,2.4,2.7v0.2H380.3z M383.3,499.4c-0.1-0.8-0.6-1.3-1.4-1.3
			c-0.8,0-1.3,0.6-1.5,1.3H383.3z"/>
		<path class="st7" d="M386.9,502.6h-1v-4.2h-0.5v-0.9h0.5v-2h1v2h1v0.9h-1V502.6z"/>
		<path class="st7" d="M390.8,500.7l1.5-3.6l1.5,3.6l1.5-3.3h1.1l-2.6,5.3l-1.5-3.4l-1.5,3.4l-2.6-5.3h1.1L390.8,500.7z"/>
		<path class="st7" d="M402.7,500c0,1.6-1.2,2.7-2.8,2.7s-2.8-1.2-2.8-2.7c0-1.6,1.2-2.7,2.8-2.7S402.7,498.5,402.7,500z M398.1,500
			c0,1,0.8,1.8,1.8,1.8s1.8-0.8,1.8-1.8c0-1-0.8-1.8-1.8-1.8S398.1,499.1,398.1,500z"/>
		<path class="st7" d="M405.3,498.3L405.3,498.3c0.3-0.6,0.8-1,1.4-1c0.3,0,0.6,0.1,0.8,0.3l-0.5,0.9c-0.2-0.2-0.4-0.2-0.6-0.2
			c-1.1,0-1.2,1-1.2,1.8v2.5h-1v-5.1h1V498.3z"/>
		<path class="st7" d="M409.8,499.4l1.9-1.9h1.3l-2.2,2.1l2.4,3H412l-1.8-2.3l-0.3,0.3v2h-1v-9.5h1V499.4z"/>
		<path class="st7" d="M416.5,498.6c-0.1-0.3-0.4-0.5-0.7-0.5c-0.3,0-0.5,0.2-0.5,0.5c0,0.5,0.6,0.6,1.2,0.9
			c0.6,0.3,1.2,0.6,1.2,1.5c0,1-0.8,1.7-1.8,1.7c-0.7,0-1.5-0.4-1.8-1.2l0.8-0.4c0.2,0.4,0.5,0.7,0.9,0.7c0.4,0,0.8-0.3,0.8-0.7
			c0-0.3-0.1-0.4-0.4-0.6l-1-0.5c-0.6-0.3-1-0.6-1-1.3c0-0.8,0.7-1.5,1.5-1.5c0.6,0,1.1,0.3,1.4,0.9L416.5,498.6z"/>
	</g>
</g>
<g>
	<g>
		<path class="st7" d="M339.7,538.2v-3.3h1v8.3h-1v-4h-4v4h-1v-8.3h1v3.3H339.7z"/>
		<path class="st7" d="M344.2,535.6c0,0.4-0.3,0.7-0.7,0.7s-0.7-0.3-0.7-0.7c0-0.4,0.3-0.7,0.7-0.7S344.2,535.2,344.2,535.6z
			 M344,543.1h-1V538h1V543.1z"/>
		<path class="st7" d="M350.1,542.3L350.1,542.3c-0.4,0.6-1,1-1.8,1c-1.6,0-2.5-1.3-2.5-2.8c0-1.4,0.9-2.7,2.4-2.7
			c0.8,0,1.4,0.4,1.8,1h0v-5.3h1v9.5h-1V542.3z M350.1,540.6c0-1-0.6-1.8-1.7-1.8c-1,0-1.6,0.9-1.6,1.8c0,1,0.6,1.9,1.6,1.9
			C349.5,542.4,350.1,541.6,350.1,540.6z"/>
		<path class="st7" d="M356.8,542.3L356.8,542.3c-0.4,0.6-1,1-1.8,1c-1.6,0-2.5-1.3-2.5-2.8c0-1.4,0.9-2.7,2.4-2.7
			c0.8,0,1.4,0.4,1.8,1h0v-5.3h1v9.5h-1V542.3z M356.9,540.6c0-1-0.6-1.8-1.7-1.8c-1,0-1.6,0.9-1.6,1.8c0,1,0.6,1.9,1.6,1.9
			C356.3,542.4,356.9,541.6,356.9,540.6z"/>
		<path class="st7" d="M360.4,540.7c0,0.9,0.6,1.7,1.6,1.7c0.8,0,1.2-0.4,1.5-1l0.8,0.5c-0.5,0.9-1.4,1.4-2.4,1.4
			c-1.6,0-2.5-1.2-2.5-2.7c0-1.6,0.8-2.8,2.5-2.8c1.6,0,2.4,1.2,2.4,2.7v0.2H360.4z M363.3,540c-0.1-0.8-0.6-1.3-1.4-1.3
			c-0.8,0-1.3,0.5-1.5,1.3H363.3z"/>
		<path class="st7" d="M366.8,538.7L366.8,538.7c0.3-0.6,0.9-0.8,1.6-0.8c1.5,0,1.8,1,1.8,2.2v3.1h-1v-2.9c0-0.9-0.1-1.5-1.1-1.5
			c-1.3,0-1.3,1.1-1.3,2.1v2.4h-1V538h1V538.7z"/>
		<path class="st7" d="M377.6,537.6L377.6,537.6l-1,5.5h-1.1l1.7-8.6l2.8,6.5l2.8-6.5l1.7,8.6h-1.1l-1-5.5h0l-2.5,5.7L377.6,537.6z"
			/>
		<path class="st7" d="M390.9,543.1h-1v-0.8h0c-0.4,0.6-1,1-1.7,1c-1.6,0-2.5-1.3-2.5-2.8c0-1.4,0.9-2.7,2.4-2.7
			c0.8,0,1.4,0.4,1.8,1h0V538h1V543.1z M390,540.6c0-1-0.6-1.8-1.7-1.8c-1,0-1.6,0.9-1.6,1.8c0,1,0.6,1.9,1.6,1.9
			C389.4,542.4,390,541.6,390,540.6z"/>
		<path class="st7" d="M393.9,538.8L393.9,538.8c0.3-0.6,0.8-1,1.4-1c0.3,0,0.6,0.1,0.8,0.3l-0.5,0.9c-0.2-0.2-0.4-0.2-0.6-0.2
			c-1.1,0-1.2,1-1.2,1.8v2.5h-1V538h1V538.8z"/>
		<path class="st7" d="M398.4,539.9l1.9-1.9h1.3l-2.2,2.1l2.4,3h-1.3l-1.8-2.3l-0.3,0.3v2h-1v-9.5h1V539.9z"/>
		<path class="st7" d="M408.2,540.6c0,1.6-1.2,2.7-2.8,2.7c-1.5,0-2.8-1.2-2.8-2.7c0-1.6,1.2-2.7,2.8-2.7
			C406.9,537.8,408.2,539,408.2,540.6z M403.6,540.6c0,1,0.8,1.8,1.8,1.8c1,0,1.8-0.8,1.8-1.8c0-1-0.8-1.8-1.8-1.8
			C404.4,538.8,403.6,539.6,403.6,540.6z"/>
		<path class="st7" d="M411.5,541.2l1.5-3.2h1.1l-2.6,5.3l-2.6-5.3h1.1L411.5,541.2z"/>
		<path class="st7" d="M360.2,549.6L360.2,549.6l-1,5.5h-1.1l1.7-8.6l2.8,6.5l2.8-6.5l1.7,8.6h-1.1l-1-5.5h0l-2.5,5.7L360.2,549.6z"
			/>
		<path class="st7" d="M373.8,552.6c0,1.6-1.2,2.7-2.8,2.7c-1.5,0-2.8-1.2-2.8-2.7c0-1.6,1.2-2.7,2.8-2.7
			C372.6,549.8,373.8,551,373.8,552.6z M369.3,552.6c0,1,0.8,1.8,1.8,1.8c1,0,1.8-0.8,1.8-1.8c0-1-0.8-1.8-1.8-1.8
			C370,550.8,369.3,551.6,369.3,552.6z"/>
		<path class="st7" d="M379.2,554.3L379.2,554.3c-0.4,0.6-1,1-1.8,1c-1.6,0-2.5-1.3-2.5-2.8c0-1.4,0.9-2.7,2.4-2.7
			c0.8,0,1.4,0.4,1.8,1h0v-5.3h1v9.5h-1V554.3z M379.2,552.6c0-1-0.6-1.8-1.7-1.8c-1,0-1.6,0.9-1.6,1.8c0,1,0.6,1.9,1.6,1.9
			C378.6,554.4,379.2,553.6,379.2,552.6z"/>
		<path class="st7" d="M382.7,552.7c0,0.9,0.6,1.7,1.6,1.7c0.8,0,1.2-0.4,1.5-1l0.8,0.5c-0.5,0.9-1.4,1.4-2.4,1.4
			c-1.6,0-2.5-1.2-2.5-2.7c0-1.6,0.8-2.8,2.5-2.8c1.6,0,2.4,1.2,2.4,2.7v0.2H382.7z M385.6,552c-0.1-0.8-0.6-1.3-1.4-1.3
			c-0.8,0-1.3,0.5-1.5,1.3H385.6z"/>
		<path class="st7" d="M389.2,555.1h-1v-9.5h1V555.1z"/>
	</g>
</g>
<polyline class="st2" points="185.2,252.9 203.5,255.7 206.2,237.4 "/>
<polyline class="st2" points="107.9,252.9 89.6,255.7 86.9,237.4 "/>
<polyline class="st2" points="301.7,120.1 320,122.9 322.7,104.6 "/>
<polyline class="st2" points="224.4,120.1 206.1,122.9 203.4,104.6 "/>
<path class="st4" d="M425.9,193h-116c-4.4,0-8-3.6-8-8v-44.1c0-4.4,3.6-8,8-8h116c4.4,0,8,3.6,8,8V185
	C433.9,189.4,430.4,193,425.9,193z"/>
<g>
	<g>
		<path class="st5" d="M312.8,147.4h2.2v6.3c0,1.4,0.1,3.4,2,3.4s2-2,2-3.4v-6.3h2.2v6.8c0,2.8-1.2,4.8-4.2,4.8
			c-3,0-4.2-2.1-4.2-4.8V147.4z"/>
		<path class="st5" d="M323.7,147.1h1.6l6,7.9h0v-7.6h2.2v11.5h-1.6l-6-7.9h0v7.7h-2.2V147.1z"/>
		<path class="st5" d="M341.3,149.9c-0.4-0.6-1-0.9-1.7-0.9c-0.7,0-1.4,0.5-1.4,1.3c0,1.9,4.5,1.1,4.5,4.9c0,2.3-1.4,3.9-3.7,3.9
			c-1.6,0-2.7-0.9-3.5-2.2l1.4-1.4c0.3,0.9,1.1,1.6,2,1.6c0.9,0,1.5-0.8,1.5-1.6c0-1.2-1.1-1.5-2-1.8c-1.5-0.6-2.5-1.3-2.5-3.1
			c0-1.9,1.4-3.4,3.3-3.4c1,0,2.4,0.5,3.1,1.3L341.3,149.9z"/>
		<path class="st5" d="M344.7,147.4h2.2v6.3c0,1.4,0.1,3.4,2,3.4s2-2,2-3.4v-6.3h2.2v6.8c0,2.8-1.2,4.8-4.2,4.8
			c-3,0-4.2-2.1-4.2-4.8V147.4z"/>
		<path class="st5" d="M357.7,158.7h-2.2v-11.3h3c2.4,0,3.9,0.9,3.9,3.5c0,2.4-1.3,3.6-3.6,3.6h-1.1V158.7z M357.7,152.6h0.5
			c1.3,0,2-0.3,2-1.8c0-1.5-0.8-1.7-2.1-1.7h-0.4V152.6z"/>
		<path class="st5" d="M366.6,149.3v2.5h3.5v1.9h-3.5v3.1h3.6v1.9h-5.8v-11.3h5.8v1.9H366.6z"/>
		<path class="st5" d="M380.2,158.7h-2.7l-2.7-4.6h0v4.6h-2.2v-11.3h3c2.2,0,3.8,1,3.8,3.4c0,1.4-0.8,2.9-2.3,3.1L380.2,158.7z
			 M374.8,152.6h0.3c1.2,0,2.1-0.4,2.1-1.7c0-1.4-0.9-1.7-2.1-1.7h-0.3V152.6z"/>
		<path class="st5" d="M385.9,155L385.9,155l2.5-7.6h2.4l-4.4,11.6h-1.3l-4.3-11.6h2.4L385.9,155z"/>
		<path class="st5" d="M394.5,158.7h-2.2v-11.3h2.2V158.7z"/>
		<path class="st5" d="M402.4,149.9c-0.4-0.6-1-0.9-1.7-0.9c-0.7,0-1.4,0.5-1.4,1.3c0,1.9,4.5,1.1,4.5,4.9c0,2.3-1.4,3.9-3.7,3.9
			c-1.6,0-2.7-0.9-3.5-2.2l1.4-1.4c0.3,0.9,1.1,1.6,2,1.6c0.9,0,1.5-0.8,1.5-1.6c0-1.2-1.1-1.5-2-1.8c-1.5-0.6-2.5-1.3-2.5-3.1
			c0-1.9,1.4-3.4,3.3-3.4c1,0,2.4,0.5,3.1,1.3L402.4,149.9z"/>
		<path class="st5" d="M408,149.3v2.5h3.5v1.9H408v3.1h3.6v1.9h-5.8v-11.3h5.8v1.9H408z"/>
		<path class="st5" d="M414.1,147.4h3.2c3.3,0,5.5,2.4,5.5,5.7c0,3.2-2.2,5.6-5.5,5.6h-3.1V147.4z M416.3,156.8h0.4
			c2.7,0,3.8-1.5,3.8-3.7c0-2.5-1.3-3.7-3.8-3.7h-0.4V156.8z"/>
		<path class="st5" d="M332.6,173.8h3.1v1.9h-5.3v-11.3h2.2V173.8z"/>
		<path class="st5" d="M339.5,166.3v2.5h3.5v1.9h-3.5v3.1h3.6v1.9h-5.8v-11.3h5.8v1.9H339.5z"/>
		<path class="st5" d="M347.9,173.3l-0.9,2.4h-2.3l4.4-11.6h1.7l4.3,11.6h-2.4l-0.9-2.4H347.9z M349.8,167.4L349.8,167.4l-1.3,4.1
			h2.7L349.8,167.4z"/>
		<path class="st5" d="M364.2,175.7h-2.7l-2.7-4.6h0v4.6h-2.2v-11.3h3c2.2,0,3.8,1,3.8,3.4c0,1.4-0.8,2.9-2.3,3.1L364.2,175.7z
			 M358.8,169.6h0.3c1.2,0,2.1-0.4,2.1-1.7c0-1.4-0.9-1.7-2.1-1.7h-0.3V169.6z"/>
		<path class="st5" d="M365.9,164.1h1.6l6,7.9h0v-7.6h2.2v11.5H374l-6-7.9h0v7.7h-2.2V164.1z"/>
		<path class="st5" d="M380.3,175.7h-2.2v-11.3h2.2V175.7z"/>
		<path class="st5" d="M382.8,164.1h1.6l6,7.9h0v-7.6h2.2v11.5H391l-6-7.9h0v7.7h-2.2V164.1z"/>
		<path class="st5" d="M405.1,169.7v0.3c0,3.2-1.6,6-5.1,6c-3.3,0-5.4-2.8-5.4-5.9c0-3.2,2.1-6,5.5-6c1.9,0,3.6,1,4.5,2.7l-2,1
			c-0.5-1-1.4-1.8-2.6-1.8c-2.1,0-3.2,2.2-3.2,4s1.1,4,3.2,4c1.4,0,2.5-1.2,2.6-2.6h-2.4v-1.8H405.1z"/>
	</g>
</g>
<path class="st4" d="M206.6,192.5h-116c-4.4,0-8-3.6-8-8v-44.1c0-4.4,3.6-8,8-8h116c4.4,0,8,3.6,8,8v44.1
	C214.6,188.9,211.1,192.5,206.6,192.5z"/>
<g>
	<g>
		<path class="st5" d="M110.4,149.4c-0.4-0.6-1-0.9-1.7-0.9c-0.7,0-1.4,0.5-1.4,1.3c0,1.9,4.5,1.1,4.5,4.9c0,2.3-1.4,3.9-3.7,3.9
			c-1.6,0-2.7-0.9-3.5-2.2l1.4-1.4c0.3,0.9,1.1,1.6,2,1.6c0.9,0,1.5-0.8,1.5-1.6c0-1.2-1.1-1.5-2-1.8c-1.5-0.6-2.5-1.3-2.5-3.1
			c0-1.9,1.4-3.4,3.3-3.4c1,0,2.4,0.5,3.1,1.3L110.4,149.4z"/>
		<path class="st5" d="M113.8,146.9h2.2v6.3c0,1.4,0.1,3.4,2,3.4s2-2,2-3.4v-6.3h2.2v6.8c0,2.8-1.2,4.8-4.2,4.8s-4.2-2.1-4.2-4.8
			V146.9z"/>
		<path class="st5" d="M126.9,158.2h-2.2v-11.3h3c2.4,0,3.9,0.9,3.9,3.5c0,2.4-1.3,3.6-3.6,3.6h-1.1V158.2z M126.9,152.1h0.5
			c1.3,0,2-0.3,2-1.8c0-1.5-0.8-1.7-2.1-1.7h-0.4V152.1z"/>
		<path class="st5" d="M135.7,148.8v2.5h3.5v1.9h-3.5v3.1h3.6v1.9h-5.8v-11.3h5.8v1.9H135.7z"/>
		<path class="st5" d="M149.4,158.2h-2.7l-2.7-4.6h0v4.6h-2.2v-11.3h3c2.2,0,3.8,1,3.8,3.4c0,1.4-0.8,2.9-2.3,3.1L149.4,158.2z
			 M143.9,152.1h0.3c1.2,0,2.1-0.4,2.1-1.7c0-1.4-0.9-1.7-2.1-1.7h-0.3V152.1z"/>
		<path class="st5" d="M155.1,154.5L155.1,154.5l2.5-7.6h2.4l-4.4,11.6h-1.3l-4.3-11.6h2.4L155.1,154.5z"/>
		<path class="st5" d="M163.7,158.2h-2.2v-11.3h2.2V158.2z"/>
		<path class="st5" d="M171.5,149.4c-0.4-0.6-1-0.9-1.7-0.9c-0.7,0-1.4,0.5-1.4,1.3c0,1.9,4.5,1.1,4.5,4.9c0,2.3-1.4,3.9-3.7,3.9
			c-1.6,0-2.7-0.9-3.5-2.2l1.4-1.4c0.3,0.9,1.1,1.6,2,1.6c0.9,0,1.5-0.8,1.5-1.6c0-1.2-1.1-1.5-2-1.8c-1.5-0.6-2.5-1.3-2.5-3.1
			c0-1.9,1.4-3.4,3.3-3.4c1,0,2.4,0.5,3.1,1.3L171.5,149.4z"/>
		<path class="st5" d="M177.2,148.8v2.5h3.5v1.9h-3.5v3.1h3.6v1.9H175v-11.3h5.8v1.9H177.2z"/>
		<path class="st5" d="M183.2,146.9h3.1c3.3,0,5.5,2.4,5.5,5.7c0,3.2-2.2,5.6-5.5,5.6h-3.1V146.9z M185.4,156.3h0.4
			c2.7,0,3.8-1.5,3.8-3.7c0-2.5-1.3-3.7-3.8-3.7h-0.4V156.3z"/>
		<path class="st5" d="M113.3,173.3h3.1v1.9h-5.3v-11.3h2.2V173.3z"/>
		<path class="st5" d="M120.2,165.8v2.5h3.5v1.9h-3.5v3.1h3.6v1.9H118v-11.3h5.8v1.9H120.2z"/>
		<path class="st5" d="M128.5,172.8l-0.9,2.4h-2.3l4.4-11.6h1.7l4.3,11.6h-2.4l-0.9-2.4H128.5z M130.5,166.9L130.5,166.9l-1.3,4.1
			h2.7L130.5,166.9z"/>
		<path class="st5" d="M144.9,175.2h-2.7l-2.7-4.6h0v4.6h-2.2v-11.3h3c2.2,0,3.8,1,3.8,3.4c0,1.4-0.8,2.9-2.3,3.1L144.9,175.2z
			 M139.5,169.1h0.3c1.2,0,2.1-0.4,2.1-1.7c0-1.4-0.9-1.7-2.1-1.7h-0.3V169.1z"/>
		<path class="st5" d="M146.6,163.6h1.6l6,7.9h0v-7.6h2.2v11.5h-1.6l-6-7.9h0v7.7h-2.2V163.6z"/>
		<path class="st5" d="M161,175.2h-2.2v-11.3h2.2V175.2z"/>
		<path class="st5" d="M163.5,163.6h1.6l6,7.9h0v-7.6h2.2v11.5h-1.6l-6-7.9h0v7.7h-2.2V163.6z"/>
		<path class="st5" d="M185.8,169.2v0.3c0,3.2-1.6,6-5.1,6c-3.3,0-5.4-2.8-5.4-5.9c0-3.2,2.1-6,5.5-6c1.9,0,3.6,1,4.5,2.7l-2,1
			c-0.4-1-1.4-1.8-2.6-1.8c-2.1,0-3.2,2.2-3.2,4s1.1,4,3.2,4c1.4,0,2.5-1.2,2.6-2.6h-2.4v-1.8H185.8z"/>
	</g>
</g>
</svg>
